<svg xmlns="http://www.w3.org/2000/svg" xmlns:xlink="http://www.w3.org/1999/xlink" contentStyleType="text/css" data-diagram-type="CLASS" height="139px" preserveAspectRatio="none" style="width:313px;height:139px;background:#FFFFFF;" version="1.1" viewBox="0 0 313 139" width="313px" zoomAndPan="magnify"><title>cancer_condition</title><defs/><g><g class="title" data-source-line="1"><text fill="#000000" font-family="sans-serif" font-size="14" font-weight="bold" lengthAdjust="spacing" textLength="121.6729" x="92.0122" y="23.5352">cancer_condition</text></g><!--class cancer_condition--><g class="entity" data-entity="cancer_condition" data-source-line="2" data-uid="ent0002" id="entity_cancer_condition"><rect fill="#F1F1F1" height="80.9766" rx="2.5" ry="2.5" style="stroke:#181818;stroke-width:0.5;" width="292.6973" x="7" y="44.4883"/><ellipse cx="91.5093" cy="60.4883" fill="#ADD1B2" rx="11" ry="11" style="stroke:#181818;stroke-width:1;"/><path d="M93.9824,66.6313 Q93.4014,66.9302 92.7622,67.0796 Q92.123,67.229 91.4175,67.229 Q88.9106,67.229 87.5908,65.5771 Q86.271,63.9253 86.271,60.8042 Q86.271,57.6748 87.5908,56.0229 Q88.9106,54.3711 91.4175,54.3711 Q92.123,54.3711 92.7705,54.5205 Q93.418,54.6699 93.9824,54.9688 L93.9824,57.6914 Q93.3516,57.1104 92.7581,56.8406 Q92.1646,56.5708 91.5337,56.5708 Q90.189,56.5708 89.5042,57.6375 Q88.8193,58.7041 88.8193,60.8042 Q88.8193,62.896 89.5042,63.9626 Q90.189,65.0293 91.5337,65.0293 Q92.1646,65.0293 92.7581,64.7595 Q93.3516,64.4897 93.9824,63.9087 Z " fill="#000000"/><text fill="#000000" font-family="sans-serif" font-size="14" lengthAdjust="spacing" textLength="115.1787" x="112.0093" y="65.7793">cancer_condition</text><line style="stroke:#181818;stroke-width:0.5;" x1="8" x2="298.6973" y1="76.4883" y2="76.4883"/><text fill="#000000" font-family="sans-serif" font-size="14" lengthAdjust="spacing" textLength="100.2832" x="13" y="94.0234">cancerConcept</text><text fill="#808080" font-family="sans-serif" font-size="14" lengthAdjust="spacing" textLength="119.2803" x="117.7129" y="94.0234">CodeableConcept</text><text fill="#000000" font-family="sans-serif" font-size="14" lengthAdjust="spacing" textLength="4.4297" x="236.9932" y="94.0234">&#160;</text><a href="" target="_top" title="md_type_ca_cur   |   cancer_type[r]   |   cancer_type_detailed[r]" xlink:actuate="onRequest" xlink:href="" xlink:show="new" xlink:title="md_type_ca_cur   |   cancer_type[r]   |   cancer_type_detailed[r]" xlink:type="simple"><text fill="#0000FF" font-family="sans-serif" font-size="14" lengthAdjust="spacing" text-decoration="underline" textLength="6.7471" x="241.4229" y="94.0234">*</text></a><text fill="#000000" font-family="sans-serif" font-size="14" lengthAdjust="spacing" textLength="145.8105" x="13" y="110.5117">cancerConceptSource</text><text fill="#808080" font-family="sans-serif" font-size="14" lengthAdjust="spacing" textLength="119.2803" x="163.2402" y="110.5117">CodeableConcept</text><text fill="#000000" font-family="sans-serif" font-size="14" lengthAdjust="spacing" textLength="4.4297" x="282.5205" y="110.5117">&#160;</text><a href="" target="_top" title="cpt_oncotree_code" xlink:actuate="onRequest" xlink:href="" xlink:show="new" xlink:title="cpt_oncotree_code" xlink:type="simple"><text fill="#0000FF" font-family="sans-serif" font-size="14" lengthAdjust="spacing" text-decoration="underline" textLength="6.7471" x="286.9502" y="110.5117">*</text></a><line style="stroke:#181818;stroke-width:0.5;" x1="8" x2="298.6973" y1="117.4648" y2="117.4648"/></g><!--SRC=[ZOun3eCm34LtJk6vI_SAiN24Zb4KfOvLHKfZPCo0A7V7BImLImTxUC_w_fgr462iI1AGQygQkJPOuZYUyDBif6VRWqABN5XkJubprtEY-2XqkFRwTHqujxnIq7cWW37W903mjZcoFyA9FyEGI6CkbCokSF7-z_UT9q7wjm4E6eoo2baDkziJrmq0]--></g></svg>