<svg xmlns="http://www.w3.org/2000/svg" xmlns:xlink="http://www.w3.org/1999/xlink" contentStyleType="text/css" data-diagram-type="CLASS" height="188px" preserveAspectRatio="none" style="width:365px;height:188px;background:#FFFFFF;" version="1.1" viewBox="0 0 365 188" width="365px" zoomAndPan="magnify"><title>cohort_definition</title><defs/><g><g class="title" data-source-line="1"><text fill="#000000" font-family="sans-serif" font-size="14" font-weight="bold" lengthAdjust="spacing" textLength="123.5117" x="116.9702" y="23.5352">cohort_definition</text></g><!--class cohort_definition--><g class="entity" data-entity="cohort_definition" data-source-line="2" data-uid="ent0002" id="entity_cohort_definition"><rect fill="#F1F1F1" height="130.4414" rx="2.5" ry="2.5" style="stroke:#181818;stroke-width:0.5;" width="344.4521" x="7" y="44.4883"/><ellipse cx="116.9082" cy="60.4883" fill="#ADD1B2" rx="11" ry="11" style="stroke:#181818;stroke-width:1;"/><path d="M119.3813,66.6313 Q118.8003,66.9302 118.1611,67.0796 Q117.522,67.229 116.8164,67.229 Q114.3096,67.229 112.9897,65.5771 Q111.6699,63.9253 111.6699,60.8042 Q111.6699,57.6748 112.9897,56.0229 Q114.3096,54.3711 116.8164,54.3711 Q117.522,54.3711 118.1694,54.5205 Q118.8169,54.6699 119.3813,54.9688 L119.3813,57.6914 Q118.7505,57.1104 118.157,56.8406 Q117.5635,56.5708 116.9326,56.5708 Q115.5879,56.5708 114.9031,57.6375 Q114.2183,58.7041 114.2183,60.8042 Q114.2183,62.896 114.9031,63.9626 Q115.5879,65.0293 116.9326,65.0293 Q117.5635,65.0293 118.157,64.7595 Q118.7505,64.4897 119.3813,63.9087 Z " fill="#000000"/><text fill="#000000" font-family="sans-serif" font-size="14" lengthAdjust="spacing" textLength="116.1357" x="137.4082" y="65.7793">cohort_definition</text><line style="stroke:#181818;stroke-width:0.5;" x1="8" x2="350.4521" y1="76.4883" y2="76.4883"/><text fill="#000000" font-family="sans-serif" font-size="14" lengthAdjust="spacing" textLength="61.3525" x="13" y="94.0234">identifier</text><text fill="#808080" font-family="sans-serif" font-size="14" lengthAdjust="spacing" textLength="48.0293" x="78.7822" y="94.0234">integer</text><text fill="#000000" font-family="sans-serif" font-size="14" lengthAdjust="spacing" textLength="37.29" x="13" y="110.5117">name</text><text fill="#808080" font-family="sans-serif" font-size="14" lengthAdjust="spacing" textLength="39.5664" x="54.7197" y="110.5117">string</text><text fill="#000000" font-family="sans-serif" font-size="14" lengthAdjust="spacing" textLength="65.1123" x="13" y="127">definition</text><text fill="#808080" font-family="sans-serif" font-size="14" lengthAdjust="spacing" textLength="39.5664" x="82.542" y="127">string</text><text fill="#000000" font-family="sans-serif" font-size="14" lengthAdjust="spacing" textLength="58.3105" x="13" y="143.4883">category</text><text fill="#808080" font-family="sans-serif" font-size="14" lengthAdjust="spacing" textLength="121.6592" x="75.7402" y="143.4883">string-categorical</text><text fill="#000000" font-family="sans-serif" font-size="14" lengthAdjust="spacing" textLength="143.7939" x="13" y="159.9766">parentCohortRefence</text><text fill="#808080" font-family="sans-serif" font-size="14" lengthAdjust="spacing" textLength="184.2285" x="161.2236" y="159.9766">reference:cohort_definition</text><line style="stroke:#181818;stroke-width:0.5;" x1="8" x2="350.4521" y1="166.9297" y2="166.9297"/></g><!--SRC=[VOz12i9034NtSufUGDoNqeqty08IqimO61F9P5F4kpiMcL9QtBx_-Fplx9awrBkQtoQABEoi4Z13ANl-2ZoHE4ScwmRKhDOdWtbaSKfamtbXOn1uq4OeRYofvMlbFmkXjghD1yxfbp52RluJhAwxBAkl54bmEy8gio_jTyzQn_i3]--></g></svg>