<svg xmlns="http://www.w3.org/2000/svg" xmlns:xlink="http://www.w3.org/1999/xlink" contentStyleType="text/css" data-diagram-type="CLASS" height="172px" preserveAspectRatio="none" style="width:399px;height:172px;background:#FFFFFF;" version="1.1" viewBox="0 0 399 172" width="399px" zoomAndPan="magnify"><title>cohort</title><defs/><g><g class="title" data-source-line="1"><text fill="#000000" font-family="sans-serif" font-size="14" font-weight="bold" lengthAdjust="spacing" textLength="46.5664" x="172.3447" y="23.5352">cohort</text></g><!--class cohort--><g class="entity" data-entity="cohort" data-source-line="2" data-uid="ent0002" id="entity_cohort"><rect fill="#F1F1F1" height="113.9531" rx="2.5" ry="2.5" style="stroke:#181818;stroke-width:0.5;" width="378.2559" x="7" y="44.4883"/><ellipse cx="169.8662" cy="60.4883" fill="#ADD1B2" rx="11" ry="11" style="stroke:#181818;stroke-width:1;"/><path d="M172.3394,66.6313 Q171.7583,66.9302 171.1191,67.0796 Q170.48,67.229 169.7744,67.229 Q167.2676,67.229 165.9478,65.5771 Q164.6279,63.9253 164.6279,60.8042 Q164.6279,57.6748 165.9478,56.0229 Q167.2676,54.3711 169.7744,54.3711 Q170.48,54.3711 171.1274,54.5205 Q171.7749,54.6699 172.3394,54.9688 L172.3394,57.6914 Q171.7085,57.1104 171.115,56.8406 Q170.5215,56.5708 169.8906,56.5708 Q168.5459,56.5708 167.8611,57.6375 Q167.1763,58.7041 167.1763,60.8042 Q167.1763,62.896 167.8611,63.9626 Q168.5459,65.0293 169.8906,65.0293 Q170.5215,65.0293 171.115,64.7595 Q171.7085,64.4897 172.3394,63.9087 Z " fill="#000000"/><text fill="#000000" font-family="sans-serif" font-size="14" lengthAdjust="spacing" textLength="44.0234" x="190.3662" y="65.7793">cohort</text><line style="stroke:#181818;stroke-width:0.5;" x1="8" x2="384.2559" y1="76.4883" y2="76.4883"/><text fill="#000000" font-family="sans-serif" font-size="14" lengthAdjust="spacing" textLength="177.5977" x="13" y="94.0234">cohortDefinitionReference</text><text fill="#808080" font-family="sans-serif" font-size="14" lengthAdjust="spacing" textLength="184.2285" x="195.0273" y="94.0234">reference:cohort_definition</text><text fill="#000000" font-family="sans-serif" font-size="14" lengthAdjust="spacing" textLength="114.3379" x="13" y="110.5117">patientReference</text><text fill="#808080" font-family="sans-serif" font-size="14" lengthAdjust="spacing" textLength="115.6436" x="131.7676" y="110.5117">reference:patient</text><text fill="#000000" font-family="sans-serif" font-size="14" lengthAdjust="spacing" textLength="62.3232" x="13" y="127">startDate</text><text fill="#808080" font-family="sans-serif" font-size="14" lengthAdjust="spacing" textLength="29.5791" x="79.7529" y="127">date</text><text fill="#000000" font-family="sans-serif" font-size="14" lengthAdjust="spacing" textLength="56.5537" x="13" y="143.4883">endDate</text><text fill="#808080" font-family="sans-serif" font-size="14" lengthAdjust="spacing" textLength="29.5791" x="73.9834" y="143.4883">date</text><line style="stroke:#181818;stroke-width:0.5;" x1="8" x2="384.2559" y1="150.4414" y2="150.4414"/></g><!--SRC=[AyaioKbLICxFo2yguKhEIImkXdAgkI2qIsfQPbvcIMP-Nb1gMcfHQbvoge9DSdvEVf5LUb5YfLqHJDGAeZu-1Qx1HX-ipewh8B4aCpMlX901K6LmRSKbYK3x4qjGrQS01U1AKlDIy2ke1G00]--></g></svg>