<svg xmlns="http://www.w3.org/2000/svg" xmlns:xlink="http://www.w3.org/1999/xlink" contentStyleType="text/css" data-diagram-type="CLASS" height="205px" preserveAspectRatio="none" style="width:242px;height:205px;background:#FFFFFF;" version="1.1" viewBox="0 0 242 205" width="242px" zoomAndPan="magnify"><title>death</title><defs/><g><g class="title" data-source-line="1"><text fill="#000000" font-family="sans-serif" font-size="14" font-weight="bold" lengthAdjust="spacing" textLength="40.5781" x="97.1528" y="23.5352">death</text></g><!--class death--><g class="entity" data-entity="death" data-source-line="2" data-uid="ent0002" id="entity_death"><rect fill="#F1F1F1" height="146.9297" rx="2.5" ry="2.5" style="stroke:#181818;stroke-width:0.5;" width="221.8838" x="7" y="44.4883"/><ellipse cx="94.5581" cy="60.4883" fill="#ADD1B2" rx="11" ry="11" style="stroke:#181818;stroke-width:1;"/><path d="M97.0313,66.6313 Q96.4502,66.9302 95.811,67.0796 Q95.1719,67.229 94.4663,67.229 Q91.9595,67.229 90.6396,65.5771 Q89.3198,63.9253 89.3198,60.8042 Q89.3198,57.6748 90.6396,56.0229 Q91.9595,54.3711 94.4663,54.3711 Q95.1719,54.3711 95.8193,54.5205 Q96.4668,54.6699 97.0313,54.9688 L97.0313,57.6914 Q96.4004,57.1104 95.8069,56.8406 Q95.2134,56.5708 94.5825,56.5708 Q93.2378,56.5708 92.553,57.6375 Q91.8682,58.7041 91.8682,60.8042 Q91.8682,62.896 92.553,63.9626 Q93.2378,65.0293 94.5825,65.0293 Q95.2134,65.0293 95.8069,64.7595 Q96.4004,64.4897 97.0313,63.9087 Z " fill="#000000"/><text fill="#000000" font-family="sans-serif" font-size="14" lengthAdjust="spacing" textLength="38.2676" x="115.0581" y="65.7793">death</text><line style="stroke:#181818;stroke-width:0.5;" x1="8" x2="227.8838" y1="76.4883" y2="76.4883"/><text fill="#000000" font-family="sans-serif" font-size="14" lengthAdjust="spacing" textLength="114.3379" x="13" y="94.0234">patientReference</text><text fill="#000000" font-family="sans-serif" font-size="14" lengthAdjust="spacing" textLength="29.5791" x="13" y="110.5117">date</text><a href="" target="_top" title="hybrid_death_int   |   int_dod[r]" xlink:actuate="onRequest" xlink:href="" xlink:show="new" xlink:title="hybrid_death_int   |   int_dod[r]" xlink:type="simple"><text fill="#0000FF" font-family="sans-serif" font-size="14" lengthAdjust="spacing" text-decoration="underline" textLength="6.7471" x="47.0088" y="110.5117">*</text></a><text fill="#000000" font-family="sans-serif" font-size="14" lengthAdjust="spacing" textLength="72.6182" x="13" y="127">originType</text><text fill="#808080" font-family="sans-serif" font-size="14" lengthAdjust="spacing" textLength="121.6592" x="90.0479" y="127">string-categorical</text><text fill="#000000" font-family="sans-serif" font-size="14" lengthAdjust="spacing" textLength="4.4297" x="211.707" y="127">&#160;</text><a href="" target="_top" title="hybrid_death_source" xlink:actuate="onRequest" xlink:href="" xlink:show="new" xlink:title="hybrid_death_source" xlink:type="simple"><text fill="#0000FF" font-family="sans-serif" font-size="14" lengthAdjust="spacing" text-decoration="underline" textLength="6.7471" x="216.1367" y="127">*</text></a><text fill="#000000" font-family="sans-serif" font-size="14" lengthAdjust="spacing" textLength="52.4316" x="13" y="143.4883">primary</text><text fill="#808080" font-family="sans-serif" font-size="14" lengthAdjust="spacing" textLength="54.2773" x="69.8613" y="143.4883">boolean</text><text fill="#000000" font-family="sans-serif" font-size="14" lengthAdjust="spacing" textLength="67.9355" x="13" y="159.9766">derivation</text><text fill="#000000" font-family="sans-serif" font-size="14" lengthAdjust="spacing" textLength="105.3623" x="13" y="176.4648">derivation~year</text><a href="" target="_top" title="year_death[r]" xlink:actuate="onRequest" xlink:href="" xlink:show="new" xlink:title="year_death[r]" xlink:type="simple"><text fill="#0000FF" font-family="sans-serif" font-size="14" lengthAdjust="spacing" text-decoration="underline" textLength="6.7471" x="122.792" y="176.4648">*</text></a><line style="stroke:#181818;stroke-width:0.5;" x1="8" x2="227.8838" y1="183.418" y2="183.418"/></g><!--SRC=[POx12i8m38RlVOgU1V4kOmyXtiOOMHkxG6r6MeKovxFRRIYAXv0FykVZJvGyQekG1cKynBZnf4P8X26Ty8A2mQ2oa50tpJJaNiXsQwoZaBJMZpA5EiksaNRMkxPLBEGedFE8kZBiMOvE8DSn2GMtDqNcIiI0hmxhkVvpHxw9mSqs2br1ye-gP_O8uVslB0hTIsiEN_ZC2BAebxs9FnNd5m00]--></g></svg>