<svg xmlns="http://www.w3.org/2000/svg" xmlns:xlink="http://www.w3.org/1999/xlink" contentStyleType="text/css" data-diagram-type="CLASS" height="188px" preserveAspectRatio="none" style="width:248px;height:188px;background:#FFFFFF;" version="1.1" viewBox="0 0 248 188" width="248px" zoomAndPan="magnify"><title>death_cause</title><defs/><g><g class="title" data-source-line="1"><text fill="#000000" font-family="sans-serif" font-size="14" font-weight="bold" lengthAdjust="spacing" textLength="88.5732" x="76.1357" y="23.5352">death_cause</text></g><!--class death_cause--><g class="entity" data-entity="death_cause" data-source-line="2" data-uid="ent0002" id="entity_death_cause"><rect fill="#F1F1F1" height="130.4414" rx="2.5" ry="2.5" style="stroke:#181818;stroke-width:0.5;" width="227.8447" x="7" y="44.4883"/><ellipse cx="74.7749" cy="60.4883" fill="#ADD1B2" rx="11" ry="11" style="stroke:#181818;stroke-width:1;"/><path d="M77.248,66.6313 Q76.667,66.9302 76.0278,67.0796 Q75.3887,67.229 74.6831,67.229 Q72.1763,67.229 70.8564,65.5771 Q69.5366,63.9253 69.5366,60.8042 Q69.5366,57.6748 70.8564,56.0229 Q72.1763,54.3711 74.6831,54.3711 Q75.3887,54.3711 76.0361,54.5205 Q76.6836,54.6699 77.248,54.9688 L77.248,57.6914 Q76.6172,57.1104 76.0237,56.8406 Q75.4302,56.5708 74.7993,56.5708 Q73.4546,56.5708 72.7698,57.6375 Q72.085,58.7041 72.085,60.8042 Q72.085,62.896 72.7698,63.9626 Q73.4546,65.0293 74.7993,65.0293 Q75.4302,65.0293 76.0237,64.7595 Q76.6172,64.4897 77.248,63.9087 Z " fill="#000000"/><text fill="#000000" font-family="sans-serif" font-size="14" lengthAdjust="spacing" textLength="83.7949" x="95.2749" y="65.7793">death_cause</text><line style="stroke:#181818;stroke-width:0.5;" x1="8" x2="233.8447" y1="76.4883" y2="76.4883"/><text fill="#000000" font-family="sans-serif" font-size="14" lengthAdjust="spacing" textLength="32.3818" x="13" y="94.0234">code</text><text fill="#808080" font-family="sans-serif" font-size="14" lengthAdjust="spacing" textLength="119.2803" x="49.8115" y="94.0234">CodeableConcept</text><text fill="#000000" font-family="sans-serif" font-size="14" lengthAdjust="spacing" textLength="77.9092" x="13" y="110.5117">codeSource</text><text fill="#808080" font-family="sans-serif" font-size="14" lengthAdjust="spacing" textLength="119.2803" x="95.3389" y="110.5117">CodeableConcept</text><text fill="#000000" font-family="sans-serif" font-size="14" lengthAdjust="spacing" textLength="33.2227" x="13" y="127">class</text><text fill="#000000" font-family="sans-serif" font-size="14" lengthAdjust="spacing" textLength="72.6182" x="13" y="143.4883">originType</text><text fill="#808080" font-family="sans-serif" font-size="14" lengthAdjust="spacing" textLength="121.6592" x="90.0479" y="143.4883">string-categorical</text><text fill="#000000" font-family="sans-serif" font-size="14" lengthAdjust="spacing" textLength="105.0547" x="13" y="159.9766">deathReference</text><text fill="#808080" font-family="sans-serif" font-size="14" lengthAdjust="spacing" textLength="106.3604" x="122.4844" y="159.9766">reference:death</text><line style="stroke:#181818;stroke-width:0.5;" x1="8" x2="233.8447" y1="166.9297" y2="166.9297"/></g><!--SRC=[ZOv12i9034NtSufUGDoNqarleEubfjzn84nA9bqKyUxM0OkwSllo7Z-UND2C8B-TcUQ2m4AbV99xO1tHTAoYraQZfHzMG1V1e9anURUljxwAHvsD_zHVKq4jnPHFo_GT5RUKuux94LU5IRQkFdV05ORyCsLlsbPfInvF]--></g></svg>