<svg xmlns="http://www.w3.org/2000/svg" xmlns:xlink="http://www.w3.org/1999/xlink" contentStyleType="text/css" data-diagram-type="CLASS" height="122px" preserveAspectRatio="none" style="width:111px;height:122px;background:#FFFFFF;" version="1.1" viewBox="0 0 111 122" width="111px" zoomAndPan="magnify"><title>genomic</title><defs/><g><g class="title" data-source-line="1"><text fill="#000000" font-family="sans-serif" font-size="14" font-weight="bold" lengthAdjust="spacing" textLength="61.1543" x="20.9756" y="23.5352">genomic</text></g><!--class genomic--><g class="entity" data-entity="genomic" data-source-line="2" data-uid="ent0002" id="entity_genomic"><rect fill="#F1F1F1" height="64.4883" rx="2.5" ry="2.5" style="stroke:#181818;stroke-width:0.5;" width="90.1055" x="7" y="44.4883"/><ellipse cx="22" cy="60.4883" fill="#ADD1B2" rx="11" ry="11" style="stroke:#181818;stroke-width:1;"/><path d="M24.4731,66.6313 Q23.8921,66.9302 23.2529,67.0796 Q22.6138,67.229 21.9082,67.229 Q19.4014,67.229 18.0815,65.5771 Q16.7617,63.9253 16.7617,60.8042 Q16.7617,57.6748 18.0815,56.0229 Q19.4014,54.3711 21.9082,54.3711 Q22.6138,54.3711 23.2612,54.5205 Q23.9087,54.6699 24.4731,54.9688 L24.4731,57.6914 Q23.8423,57.1104 23.2488,56.8406 Q22.6553,56.5708 22.0244,56.5708 Q20.6797,56.5708 19.9949,57.6375 Q19.3101,58.7041 19.3101,60.8042 Q19.3101,62.896 19.9949,63.9626 Q20.6797,65.0293 22.0244,65.0293 Q22.6553,65.0293 23.2488,64.7595 Q23.8423,64.4897 24.4731,63.9087 Z " fill="#000000"/><text fill="#000000" font-family="sans-serif" font-size="14" lengthAdjust="spacing" textLength="58.1055" x="36" y="65.7793">genomic</text><line style="stroke:#181818;stroke-width:0.5;" x1="8" x2="96.1055" y1="76.4883" y2="76.4883"/><text fill="#000000" font-family="sans-serif" font-size="14" lengthAdjust="spacing" textLength="58.1055" x="13" y="94.0234">genomic</text><line style="stroke:#181818;stroke-width:0.5;" x1="8" x2="96.1055" y1="100.9766" y2="100.9766"/></g><!--SRC=[AyaioKbLI4_Doy_DJEPApaaiBeRnghbWmhK0]--></g></svg>