<svg xmlns="http://www.w3.org/2000/svg" xmlns:xlink="http://www.w3.org/1999/xlink" contentStyleType="text/css" data-diagram-type="CLASS" height="1298px" preserveAspectRatio="none" style="width:2795px;height:1298px;background:#FFFFFF;" version="1.1" viewBox="0 0 2795 1298" width="2795px" zoomAndPan="magnify"><title>GENIE Logical Model</title><defs/><g><g class="title" data-source-line="1"><text fill="#000000" font-family="sans-serif" font-size="14" font-weight="bold" lengthAdjust="spacing" textLength="146.6719" x="1317.4641" y="23.5352">GENIE Logical Model</text></g><!--class patient--><g class="entity" data-entity="patient" data-source-line="2" data-uid="ent0002" id="entity_patient"><rect fill="#F1F1F1" height="48" rx="2.5" ry="2.5" style="stroke:#181818;stroke-width:0.5;" width="79.5508" x="1994.76" y="262.4883"/><ellipse cx="2009.76" cy="278.4883" fill="#ADD1B2" rx="11" ry="11" style="stroke:#181818;stroke-width:1;"/><path d="M2012.2331,284.6313 Q2011.6521,284.9302 2011.0129,285.0796 Q2010.3738,285.229 2009.6682,285.229 Q2007.1614,285.229 2005.8415,283.5771 Q2004.5217,281.9253 2004.5217,278.8042 Q2004.5217,275.6748 2005.8415,274.0229 Q2007.1614,272.3711 2009.6682,272.3711 Q2010.3738,272.3711 2011.0212,272.5205 Q2011.6687,272.6699 2012.2331,272.9688 L2012.2331,275.6914 Q2011.6023,275.1104 2011.0088,274.8406 Q2010.4153,274.5708 2009.7844,274.5708 Q2008.4397,274.5708 2007.7549,275.6375 Q2007.0701,276.7041 2007.0701,278.8042 Q2007.0701,280.896 2007.7549,281.9626 Q2008.4397,283.0293 2009.7844,283.0293 Q2010.4153,283.0293 2011.0088,282.7595 Q2011.6023,282.4897 2012.2331,281.9087 Z " fill="#000000"/><a href="patient.svg" target="_top" title="patient.svg" xlink:actuate="onRequest" xlink:href="patient.svg" xlink:show="new" xlink:title="patient.svg" xlink:type="simple"><text fill="#0000FF" font-family="sans-serif" font-size="14" lengthAdjust="spacing" text-decoration="underline" textLength="47.5508" x="2023.76" y="283.7793">patient</text></a><line style="stroke:#181818;stroke-width:0.5;" x1="1995.76" x2="2073.3108" y1="294.4883" y2="294.4883"/><line style="stroke:#181818;stroke-width:0.5;" x1="1995.76" x2="2073.3108" y1="302.4883" y2="302.4883"/></g><!--class medication--><g class="entity" data-entity="medication" data-source-line="4" data-uid="ent0003" id="entity_medication"><rect fill="#F1F1F1" height="48" rx="2.5" ry="2.5" style="stroke:#181818;stroke-width:0.5;" width="107.2021" x="2573.94" y="262.4883"/><ellipse cx="2588.94" cy="278.4883" fill="#ADD1B2" rx="11" ry="11" style="stroke:#181818;stroke-width:1;"/><path d="M2591.4131,284.6313 Q2590.8321,284.9302 2590.1929,285.0796 Q2589.5538,285.229 2588.8482,285.229 Q2586.3414,285.229 2585.0215,283.5771 Q2583.7017,281.9253 2583.7017,278.8042 Q2583.7017,275.6748 2585.0215,274.0229 Q2586.3414,272.3711 2588.8482,272.3711 Q2589.5538,272.3711 2590.2012,272.5205 Q2590.8487,272.6699 2591.4131,272.9688 L2591.4131,275.6914 Q2590.7823,275.1104 2590.1888,274.8406 Q2589.5953,274.5708 2588.9644,274.5708 Q2587.6197,274.5708 2586.9349,275.6375 Q2586.2501,276.7041 2586.2501,278.8042 Q2586.2501,280.896 2586.9349,281.9626 Q2587.6197,283.0293 2588.9644,283.0293 Q2589.5953,283.0293 2590.1888,282.7595 Q2590.7823,282.4897 2591.4131,281.9087 Z " fill="#000000"/><a href="medication.svg" target="_top" title="medication.svg" xlink:actuate="onRequest" xlink:href="medication.svg" xlink:show="new" xlink:title="medication.svg" xlink:type="simple"><text fill="#0000FF" font-family="sans-serif" font-size="14" lengthAdjust="spacing" text-decoration="underline" textLength="75.2021" x="2602.94" y="283.7793">medication</text></a><line style="stroke:#181818;stroke-width:0.5;" x1="2574.94" x2="2680.1421" y1="294.4883" y2="294.4883"/><line style="stroke:#181818;stroke-width:0.5;" x1="2574.94" x2="2680.1421" y1="302.4883" y2="302.4883"/></g><!--class procedure--><g class="entity" data-entity="procedure" data-source-line="5" data-uid="ent0004" id="entity_procedure"><rect fill="#F1F1F1" height="48" rx="2.5" ry="2.5" style="stroke:#181818;stroke-width:0.5;" width="101.1387" x="108.97" y="480.4883"/><ellipse cx="123.97" cy="496.4883" fill="#ADD1B2" rx="11" ry="11" style="stroke:#181818;stroke-width:1;"/><path d="M126.4431,502.6313 Q125.8621,502.9302 125.2229,503.0796 Q124.5838,503.229 123.8782,503.229 Q121.3714,503.229 120.0515,501.5771 Q118.7317,499.9253 118.7317,496.8042 Q118.7317,493.6748 120.0515,492.0229 Q121.3714,490.3711 123.8782,490.3711 Q124.5838,490.3711 125.2312,490.5205 Q125.8787,490.6699 126.4431,490.9688 L126.4431,493.6914 Q125.8123,493.1104 125.2188,492.8406 Q124.6253,492.5708 123.9944,492.5708 Q122.6497,492.5708 121.9649,493.6375 Q121.2801,494.7041 121.2801,496.8042 Q121.2801,498.896 121.9649,499.9626 Q122.6497,501.0293 123.9944,501.0293 Q124.6253,501.0293 125.2188,500.7595 Q125.8123,500.4897 126.4431,499.9087 Z " fill="#000000"/><a href="procedure.svg" target="_top" title="procedure.svg" xlink:actuate="onRequest" xlink:href="procedure.svg" xlink:show="new" xlink:title="procedure.svg" xlink:type="simple"><text fill="#0000FF" font-family="sans-serif" font-size="14" lengthAdjust="spacing" text-decoration="underline" textLength="69.1387" x="137.97" y="501.7793">procedure</text></a><line style="stroke:#181818;stroke-width:0.5;" x1="109.97" x2="209.1087" y1="512.4883" y2="512.4883"/><line style="stroke:#181818;stroke-width:0.5;" x1="109.97" x2="209.1087" y1="520.4883" y2="520.4883"/></g><!--class therapeutic_procedure--><g class="entity" data-entity="therapeutic_procedure" data-source-line="6" data-uid="ent0005" id="entity_therapeutic_procedure"><rect fill="#F1F1F1" height="48" rx="2.5" ry="2.5" style="stroke:#181818;stroke-width:0.5;" width="185.0771" x="7" y="262.4883"/><ellipse cx="22" cy="278.4883" fill="#ADD1B2" rx="11" ry="11" style="stroke:#181818;stroke-width:1;"/><path d="M24.4731,284.6313 Q23.8921,284.9302 23.2529,285.0796 Q22.6138,285.229 21.9082,285.229 Q19.4014,285.229 18.0815,283.5771 Q16.7617,281.9253 16.7617,278.8042 Q16.7617,275.6748 18.0815,274.0229 Q19.4014,272.3711 21.9082,272.3711 Q22.6138,272.3711 23.2612,272.5205 Q23.9087,272.6699 24.4731,272.9688 L24.4731,275.6914 Q23.8423,275.1104 23.2488,274.8406 Q22.6553,274.5708 22.0244,274.5708 Q20.6797,274.5708 19.9949,275.6375 Q19.3101,276.7041 19.3101,278.8042 Q19.3101,280.896 19.9949,281.9626 Q20.6797,283.0293 22.0244,283.0293 Q22.6553,283.0293 23.2488,282.7595 Q23.8423,282.4897 24.4731,281.9087 Z " fill="#000000"/><a href="therapeutic_procedure.svg" target="_top" title="therapeutic_procedure.svg" xlink:actuate="onRequest" xlink:href="therapeutic_procedure.svg" xlink:show="new" xlink:title="therapeutic_procedure.svg" xlink:type="simple"><text fill="#0000FF" font-family="sans-serif" font-size="14" lengthAdjust="spacing" text-decoration="underline" textLength="153.0771" x="36" y="283.7793">therapeutic_procedure</text></a><line style="stroke:#181818;stroke-width:0.5;" x1="8" x2="191.0771" y1="294.4883" y2="294.4883"/><line style="stroke:#181818;stroke-width:0.5;" x1="8" x2="191.0771" y1="302.4883" y2="302.4883"/></g><!--class observation--><g class="entity" data-entity="observation" data-source-line="7" data-uid="ent0006" id="entity_observation"><rect fill="#F1F1F1" height="48" rx="2.5" ry="2.5" style="stroke:#181818;stroke-width:0.5;" width="111.625" x="1195.73" y="589.4883"/><ellipse cx="1210.73" cy="605.4883" fill="#ADD1B2" rx="11" ry="11" style="stroke:#181818;stroke-width:1;"/><path d="M1213.2031,611.6313 Q1212.6221,611.9302 1211.9829,612.0796 Q1211.3438,612.229 1210.6382,612.229 Q1208.1314,612.229 1206.8115,610.5771 Q1205.4917,608.9253 1205.4917,605.8042 Q1205.4917,602.6748 1206.8115,601.0229 Q1208.1314,599.3711 1210.6382,599.3711 Q1211.3438,599.3711 1211.9912,599.5205 Q1212.6387,599.6699 1213.2031,599.9688 L1213.2031,602.6914 Q1212.5723,602.1104 1211.9788,601.8406 Q1211.3853,601.5708 1210.7544,601.5708 Q1209.4097,601.5708 1208.7249,602.6375 Q1208.0401,603.7041 1208.0401,605.8042 Q1208.0401,607.896 1208.7249,608.9626 Q1209.4097,610.0293 1210.7544,610.0293 Q1211.3853,610.0293 1211.9788,609.7595 Q1212.5723,609.4897 1213.2031,608.9087 Z " fill="#000000"/><a href="observation.svg" target="_top" title="observation.svg" xlink:actuate="onRequest" xlink:href="observation.svg" xlink:show="new" xlink:title="observation.svg" xlink:type="simple"><text fill="#0000FF" font-family="sans-serif" font-size="14" lengthAdjust="spacing" text-decoration="underline" textLength="79.625" x="1224.73" y="610.7793">observation</text></a><line style="stroke:#181818;stroke-width:0.5;" x1="1196.73" x2="1306.355" y1="621.4883" y2="621.4883"/><line style="stroke:#181818;stroke-width:0.5;" x1="1196.73" x2="1306.355" y1="629.4883" y2="629.4883"/></g><!--class laboratory_result--><g class="entity" data-entity="laboratory_result" data-source-line="8" data-uid="ent0007" id="entity_laboratory_result"><rect fill="#F1F1F1" height="48" rx="2.5" ry="2.5" style="stroke:#181818;stroke-width:0.5;" width="147.165" x="420.96" y="698.4883"/><ellipse cx="435.96" cy="714.4883" fill="#ADD1B2" rx="11" ry="11" style="stroke:#181818;stroke-width:1;"/><path d="M438.4331,720.6313 Q437.8521,720.9302 437.2129,721.0796 Q436.5738,721.229 435.8682,721.229 Q433.3614,721.229 432.0415,719.5771 Q430.7217,717.9253 430.7217,714.8042 Q430.7217,711.6748 432.0415,710.0229 Q433.3614,708.3711 435.8682,708.3711 Q436.5738,708.3711 437.2212,708.5205 Q437.8687,708.6699 438.4331,708.9688 L438.4331,711.6914 Q437.8023,711.1104 437.2088,710.8406 Q436.6153,710.5708 435.9844,710.5708 Q434.6397,710.5708 433.9549,711.6375 Q433.2701,712.7041 433.2701,714.8042 Q433.2701,716.896 433.9549,717.9626 Q434.6397,719.0293 435.9844,719.0293 Q436.6153,719.0293 437.2088,718.7595 Q437.8023,718.4897 438.4331,717.9087 Z " fill="#000000"/><a href="laboratory_result.svg" target="_top" title="laboratory_result.svg" xlink:actuate="onRequest" xlink:href="laboratory_result.svg" xlink:show="new" xlink:title="laboratory_result.svg" xlink:type="simple"><text fill="#0000FF" font-family="sans-serif" font-size="14" lengthAdjust="spacing" text-decoration="underline" textLength="115.165" x="449.96" y="719.7793">laboratory_result</text></a><line style="stroke:#181818;stroke-width:0.5;" x1="421.96" x2="567.125" y1="730.4883" y2="730.4883"/><line style="stroke:#181818;stroke-width:0.5;" x1="421.96" x2="567.125" y1="738.4883" y2="738.4883"/></g><!--class specimen--><g class="entity" data-entity="specimen" data-source-line="9" data-uid="ent0008" id="entity_specimen"><rect fill="#F1F1F1" height="48" rx="2.5" ry="2.5" style="stroke:#181818;stroke-width:0.5;" width="96.5244" x="1802.28" y="807.4883"/><ellipse cx="1817.28" cy="823.4883" fill="#ADD1B2" rx="11" ry="11" style="stroke:#181818;stroke-width:1;"/><path d="M1819.7531,829.6313 Q1819.1721,829.9302 1818.5329,830.0796 Q1817.8938,830.229 1817.1882,830.229 Q1814.6814,830.229 1813.3615,828.5771 Q1812.0417,826.9253 1812.0417,823.8042 Q1812.0417,820.6748 1813.3615,819.0229 Q1814.6814,817.3711 1817.1882,817.3711 Q1817.8938,817.3711 1818.5412,817.5205 Q1819.1887,817.6699 1819.7531,817.9688 L1819.7531,820.6914 Q1819.1223,820.1104 1818.5288,819.8406 Q1817.9353,819.5708 1817.3044,819.5708 Q1815.9597,819.5708 1815.2749,820.6375 Q1814.5901,821.7041 1814.5901,823.8042 Q1814.5901,825.896 1815.2749,826.9626 Q1815.9597,828.0293 1817.3044,828.0293 Q1817.9353,828.0293 1818.5288,827.7595 Q1819.1223,827.4897 1819.7531,826.9087 Z " fill="#000000"/><a href="specimen.svg" target="_top" title="specimen.svg" xlink:actuate="onRequest" xlink:href="specimen.svg" xlink:show="new" xlink:title="specimen.svg" xlink:type="simple"><text fill="#0000FF" font-family="sans-serif" font-size="14" lengthAdjust="spacing" text-decoration="underline" textLength="64.5244" x="1831.28" y="828.7793">specimen</text></a><line style="stroke:#181818;stroke-width:0.5;" x1="1803.28" x2="1897.8044" y1="839.4883" y2="839.4883"/><line style="stroke:#181818;stroke-width:0.5;" x1="1803.28" x2="1897.8044" y1="847.4883" y2="847.4883"/></g><!--class cancer_specimen--><g class="entity" data-entity="cancer_specimen" data-source-line="10" data-uid="ent0009" id="entity_cancer_specimen"><rect fill="#F1F1F1" height="48" rx="2.5" ry="2.5" style="stroke:#181818;stroke-width:0.5;" width="147.8145" x="1776.63" y="1025.4883"/><ellipse cx="1791.63" cy="1041.4883" fill="#ADD1B2" rx="11" ry="11" style="stroke:#181818;stroke-width:1;"/><path d="M1794.1031,1047.6313 Q1793.5221,1047.9302 1792.8829,1048.0796 Q1792.2438,1048.229 1791.5382,1048.229 Q1789.0314,1048.229 1787.7115,1046.5771 Q1786.3917,1044.9253 1786.3917,1041.8042 Q1786.3917,1038.6748 1787.7115,1037.0229 Q1789.0314,1035.3711 1791.5382,1035.3711 Q1792.2438,1035.3711 1792.8912,1035.5205 Q1793.5387,1035.6699 1794.1031,1035.9688 L1794.1031,1038.6914 Q1793.4723,1038.1104 1792.8788,1037.8406 Q1792.2853,1037.5708 1791.6544,1037.5708 Q1790.3097,1037.5708 1789.6249,1038.6375 Q1788.9401,1039.7041 1788.9401,1041.8042 Q1788.9401,1043.896 1789.6249,1044.9626 Q1790.3097,1046.0293 1791.6544,1046.0293 Q1792.2853,1046.0293 1792.8788,1045.7595 Q1793.4723,1045.4897 1794.1031,1044.9087 Z " fill="#000000"/><a href="cancer_specimen.svg" target="_top" title="cancer_specimen.svg" xlink:actuate="onRequest" xlink:href="cancer_specimen.svg" xlink:show="new" xlink:title="cancer_specimen.svg" xlink:type="simple"><text fill="#0000FF" font-family="sans-serif" font-size="14" lengthAdjust="spacing" text-decoration="underline" textLength="115.8145" x="1805.63" y="1046.7793">cancer_specimen</text></a><line style="stroke:#181818;stroke-width:0.5;" x1="1777.63" x2="1923.4445" y1="1057.4883" y2="1057.4883"/><line style="stroke:#181818;stroke-width:0.5;" x1="1777.63" x2="1923.4445" y1="1065.4883" y2="1065.4883"/></g><!--class pathology_report--><g class="entity" data-entity="pathology_report" data-source-line="11" data-uid="ent0010" id="entity_pathology_report"><rect fill="#F1F1F1" height="48" rx="2.5" ry="2.5" style="stroke:#181818;stroke-width:0.5;" width="148.6621" x="1693.21" y="589.4883"/><ellipse cx="1708.21" cy="605.4883" fill="#ADD1B2" rx="11" ry="11" style="stroke:#181818;stroke-width:1;"/><path d="M1710.6831,611.6313 Q1710.1021,611.9302 1709.4629,612.0796 Q1708.8238,612.229 1708.1182,612.229 Q1705.6114,612.229 1704.2915,610.5771 Q1702.9717,608.9253 1702.9717,605.8042 Q1702.9717,602.6748 1704.2915,601.0229 Q1705.6114,599.3711 1708.1182,599.3711 Q1708.8238,599.3711 1709.4712,599.5205 Q1710.1187,599.6699 1710.6831,599.9688 L1710.6831,602.6914 Q1710.0523,602.1104 1709.4588,601.8406 Q1708.8653,601.5708 1708.2344,601.5708 Q1706.8897,601.5708 1706.2049,602.6375 Q1705.5201,603.7041 1705.5201,605.8042 Q1705.5201,607.896 1706.2049,608.9626 Q1706.8897,610.0293 1708.2344,610.0293 Q1708.8653,610.0293 1709.4588,609.7595 Q1710.0523,609.4897 1710.6831,608.9087 Z " fill="#000000"/><a href="pathology_report.svg" target="_top" title="pathology_report.svg" xlink:actuate="onRequest" xlink:href="pathology_report.svg" xlink:show="new" xlink:title="pathology_report.svg" xlink:type="simple"><text fill="#0000FF" font-family="sans-serif" font-size="14" lengthAdjust="spacing" text-decoration="underline" textLength="116.6621" x="1722.21" y="610.7793">pathology_report</text></a><line style="stroke:#181818;stroke-width:0.5;" x1="1694.21" x2="1840.8721" y1="621.4883" y2="621.4883"/><line style="stroke:#181818;stroke-width:0.5;" x1="1694.21" x2="1840.8721" y1="629.4883" y2="629.4883"/></g><!--class report--><g class="entity" data-entity="report" data-source-line="12" data-uid="ent0011" id="entity_report"><rect fill="#F1F1F1" height="48" rx="2.5" ry="2.5" style="stroke:#181818;stroke-width:0.5;" width="73.9043" x="1646.59" y="480.4883"/><ellipse cx="1661.59" cy="496.4883" fill="#ADD1B2" rx="11" ry="11" style="stroke:#181818;stroke-width:1;"/><path d="M1664.0631,502.6313 Q1663.4821,502.9302 1662.8429,503.0796 Q1662.2038,503.229 1661.4982,503.229 Q1658.9914,503.229 1657.6715,501.5771 Q1656.3517,499.9253 1656.3517,496.8042 Q1656.3517,493.6748 1657.6715,492.0229 Q1658.9914,490.3711 1661.4982,490.3711 Q1662.2038,490.3711 1662.8512,490.5205 Q1663.4987,490.6699 1664.0631,490.9688 L1664.0631,493.6914 Q1663.4323,493.1104 1662.8388,492.8406 Q1662.2453,492.5708 1661.6144,492.5708 Q1660.2697,492.5708 1659.5849,493.6375 Q1658.9001,494.7041 1658.9001,496.8042 Q1658.9001,498.896 1659.5849,499.9626 Q1660.2697,501.0293 1661.6144,501.0293 Q1662.2453,501.0293 1662.8388,500.7595 Q1663.4323,500.4897 1664.0631,499.9087 Z " fill="#000000"/><a href="report.svg" target="_top" title="report.svg" xlink:actuate="onRequest" xlink:href="report.svg" xlink:show="new" xlink:title="report.svg" xlink:type="simple"><text fill="#0000FF" font-family="sans-serif" font-size="14" lengthAdjust="spacing" text-decoration="underline" textLength="41.9043" x="1675.59" y="501.7793">report</text></a><line style="stroke:#181818;stroke-width:0.5;" x1="1647.59" x2="1719.4943" y1="512.4883" y2="512.4883"/><line style="stroke:#181818;stroke-width:0.5;" x1="1647.59" x2="1719.4943" y1="520.4883" y2="520.4883"/></g><!--class report_section--><g class="entity" data-entity="report_section" data-source-line="13" data-uid="ent0012" id="entity_report_section"><rect fill="#F1F1F1" height="48" rx="2.5" ry="2.5" style="stroke:#181818;stroke-width:0.5;" width="129.583" x="1777.75" y="480.4883"/><ellipse cx="1792.75" cy="496.4883" fill="#ADD1B2" rx="11" ry="11" style="stroke:#181818;stroke-width:1;"/><path d="M1795.2231,502.6313 Q1794.6421,502.9302 1794.0029,503.0796 Q1793.3638,503.229 1792.6582,503.229 Q1790.1514,503.229 1788.8315,501.5771 Q1787.5117,499.9253 1787.5117,496.8042 Q1787.5117,493.6748 1788.8315,492.0229 Q1790.1514,490.3711 1792.6582,490.3711 Q1793.3638,490.3711 1794.0112,490.5205 Q1794.6587,490.6699 1795.2231,490.9688 L1795.2231,493.6914 Q1794.5923,493.1104 1793.9988,492.8406 Q1793.4053,492.5708 1792.7744,492.5708 Q1791.4297,492.5708 1790.7449,493.6375 Q1790.0601,494.7041 1790.0601,496.8042 Q1790.0601,498.896 1790.7449,499.9626 Q1791.4297,501.0293 1792.7744,501.0293 Q1793.4053,501.0293 1793.9988,500.7595 Q1794.5923,500.4897 1795.2231,499.9087 Z " fill="#000000"/><a href="report_section.svg" target="_top" title="report_section.svg" xlink:actuate="onRequest" xlink:href="report_section.svg" xlink:show="new" xlink:title="report_section.svg" xlink:type="simple"><text fill="#0000FF" font-family="sans-serif" font-size="14" lengthAdjust="spacing" text-decoration="underline" textLength="97.583" x="1806.75" y="501.7793">report_section</text></a><line style="stroke:#181818;stroke-width:0.5;" x1="1778.75" x2="1906.333" y1="512.4883" y2="512.4883"/><line style="stroke:#181818;stroke-width:0.5;" x1="1778.75" x2="1906.333" y1="520.4883" y2="520.4883"/></g><!--class organization--><g class="entity" data-entity="organization" data-source-line="14" data-uid="ent0013" id="entity_organization"><rect fill="#F1F1F1" height="48" rx="2.5" ry="2.5" style="stroke:#181818;stroke-width:0.5;" width="117.8525" x="212.61" y="44.4883"/><ellipse cx="227.61" cy="60.4883" fill="#ADD1B2" rx="11" ry="11" style="stroke:#181818;stroke-width:1;"/><path d="M230.0831,66.6313 Q229.5021,66.9302 228.8629,67.0796 Q228.2238,67.229 227.5182,67.229 Q225.0114,67.229 223.6915,65.5771 Q222.3717,63.9253 222.3717,60.8042 Q222.3717,57.6748 223.6915,56.0229 Q225.0114,54.3711 227.5182,54.3711 Q228.2238,54.3711 228.8712,54.5205 Q229.5187,54.6699 230.0831,54.9688 L230.0831,57.6914 Q229.4523,57.1104 228.8588,56.8406 Q228.2653,56.5708 227.6344,56.5708 Q226.2897,56.5708 225.6049,57.6375 Q224.9201,58.7041 224.9201,60.8042 Q224.9201,62.896 225.6049,63.9626 Q226.2897,65.0293 227.6344,65.0293 Q228.2653,65.0293 228.8588,64.7595 Q229.4523,64.4897 230.0831,63.9087 Z " fill="#000000"/><a href="organization.svg" target="_top" title="organization.svg" xlink:actuate="onRequest" xlink:href="organization.svg" xlink:show="new" xlink:title="organization.svg" xlink:type="simple"><text fill="#0000FF" font-family="sans-serif" font-size="14" lengthAdjust="spacing" text-decoration="underline" textLength="85.8525" x="241.61" y="65.7793">organization</text></a><line style="stroke:#181818;stroke-width:0.5;" x1="213.61" x2="329.4625" y1="76.4883" y2="76.4883"/><line style="stroke:#181818;stroke-width:0.5;" x1="213.61" x2="329.4625" y1="84.4883" y2="84.4883"/></g><!--class provider--><g class="entity" data-entity="provider" data-source-line="15" data-uid="ent0014" id="entity_provider"><rect fill="#F1F1F1" height="48" rx="2.5" ry="2.5" style="stroke:#181818;stroke-width:0.5;" width="88.7725" x="227.15" y="262.4883"/><ellipse cx="242.15" cy="278.4883" fill="#ADD1B2" rx="11" ry="11" style="stroke:#181818;stroke-width:1;"/><path d="M244.6231,284.6313 Q244.0421,284.9302 243.4029,285.0796 Q242.7638,285.229 242.0582,285.229 Q239.5514,285.229 238.2315,283.5771 Q236.9117,281.9253 236.9117,278.8042 Q236.9117,275.6748 238.2315,274.0229 Q239.5514,272.3711 242.0582,272.3711 Q242.7638,272.3711 243.4112,272.5205 Q244.0587,272.6699 244.6231,272.9688 L244.6231,275.6914 Q243.9923,275.1104 243.3988,274.8406 Q242.8053,274.5708 242.1744,274.5708 Q240.8297,274.5708 240.1449,275.6375 Q239.4601,276.7041 239.4601,278.8042 Q239.4601,280.896 240.1449,281.9626 Q240.8297,283.0293 242.1744,283.0293 Q242.8053,283.0293 243.3988,282.7595 Q243.9923,282.4897 244.6231,281.9087 Z " fill="#000000"/><a href="provider.svg" target="_top" title="provider.svg" xlink:actuate="onRequest" xlink:href="provider.svg" xlink:show="new" xlink:title="provider.svg" xlink:type="simple"><text fill="#0000FF" font-family="sans-serif" font-size="14" lengthAdjust="spacing" text-decoration="underline" textLength="56.7725" x="256.15" y="283.7793">provider</text></a><line style="stroke:#181818;stroke-width:0.5;" x1="228.15" x2="314.9225" y1="294.4883" y2="294.4883"/><line style="stroke:#181818;stroke-width:0.5;" x1="228.15" x2="314.9225" y1="302.4883" y2="302.4883"/></g><!--class site--><g class="entity" data-entity="site" data-source-line="17" data-uid="ent0015" id="entity_site"><rect fill="#F1F1F1" height="48" rx="2.5" ry="2.5" style="stroke:#181818;stroke-width:0.5;" width="56.2197" x="121.43" y="44.4883"/><ellipse cx="136.43" cy="60.4883" fill="#ADD1B2" rx="11" ry="11" style="stroke:#181818;stroke-width:1;"/><path d="M138.9031,66.6313 Q138.3221,66.9302 137.6829,67.0796 Q137.0438,67.229 136.3382,67.229 Q133.8314,67.229 132.5115,65.5771 Q131.1917,63.9253 131.1917,60.8042 Q131.1917,57.6748 132.5115,56.0229 Q133.8314,54.3711 136.3382,54.3711 Q137.0438,54.3711 137.6912,54.5205 Q138.3387,54.6699 138.9031,54.9688 L138.9031,57.6914 Q138.2723,57.1104 137.6788,56.8406 Q137.0853,56.5708 136.4544,56.5708 Q135.1097,56.5708 134.4249,57.6375 Q133.7401,58.7041 133.7401,60.8042 Q133.7401,62.896 134.4249,63.9626 Q135.1097,65.0293 136.4544,65.0293 Q137.0853,65.0293 137.6788,64.7595 Q138.2723,64.4897 138.9031,63.9087 Z " fill="#000000"/><a href="site.svg" target="_top" title="site.svg" xlink:actuate="onRequest" xlink:href="site.svg" xlink:show="new" xlink:title="site.svg" xlink:type="simple"><text fill="#0000FF" font-family="sans-serif" font-size="14" lengthAdjust="spacing" text-decoration="underline" textLength="24.2197" x="150.43" y="65.7793">site</text></a><line style="stroke:#181818;stroke-width:0.5;" x1="122.43" x2="176.6497" y1="76.4883" y2="76.4883"/><line style="stroke:#181818;stroke-width:0.5;" x1="122.43" x2="176.6497" y1="84.4883" y2="84.4883"/></g><!--class location--><g class="entity" data-entity="location" data-source-line="18" data-uid="ent0016" id="entity_location"><rect fill="#F1F1F1" height="48" rx="2.5" ry="2.5" style="stroke:#181818;stroke-width:0.5;" width="86.1201" x="2702.48" y="44.4883"/><ellipse cx="2717.48" cy="60.4883" fill="#ADD1B2" rx="11" ry="11" style="stroke:#181818;stroke-width:1;"/><path d="M2719.9531,66.6313 Q2719.3721,66.9302 2718.7329,67.0796 Q2718.0938,67.229 2717.3882,67.229 Q2714.8814,67.229 2713.5615,65.5771 Q2712.2417,63.9253 2712.2417,60.8042 Q2712.2417,57.6748 2713.5615,56.0229 Q2714.8814,54.3711 2717.3882,54.3711 Q2718.0938,54.3711 2718.7412,54.5205 Q2719.3887,54.6699 2719.9531,54.9688 L2719.9531,57.6914 Q2719.3223,57.1104 2718.7288,56.8406 Q2718.1353,56.5708 2717.5044,56.5708 Q2716.1597,56.5708 2715.4749,57.6375 Q2714.7901,58.7041 2714.7901,60.8042 Q2714.7901,62.896 2715.4749,63.9626 Q2716.1597,65.0293 2717.5044,65.0293 Q2718.1353,65.0293 2718.7288,64.7595 Q2719.3223,64.4897 2719.9531,63.9087 Z " fill="#000000"/><a href="location.svg" target="_top" title="location.svg" xlink:actuate="onRequest" xlink:href="location.svg" xlink:show="new" xlink:title="location.svg" xlink:type="simple"><text fill="#0000FF" font-family="sans-serif" font-size="14" lengthAdjust="spacing" text-decoration="underline" textLength="54.1201" x="2731.48" y="65.7793">location</text></a><line style="stroke:#181818;stroke-width:0.5;" x1="2703.48" x2="2787.6001" y1="76.4883" y2="76.4883"/><line style="stroke:#181818;stroke-width:0.5;" x1="2703.48" x2="2787.6001" y1="84.4883" y2="84.4883"/></g><!--class death--><g class="entity" data-entity="death" data-source-line="19" data-uid="ent0017" id="entity_death"><rect fill="#F1F1F1" height="48" rx="2.5" ry="2.5" style="stroke:#181818;stroke-width:0.5;" width="70.2676" x="1942.4" y="480.4883"/><ellipse cx="1957.4" cy="496.4883" fill="#ADD1B2" rx="11" ry="11" style="stroke:#181818;stroke-width:1;"/><path d="M1959.8731,502.6313 Q1959.2921,502.9302 1958.6529,503.0796 Q1958.0138,503.229 1957.3082,503.229 Q1954.8014,503.229 1953.4815,501.5771 Q1952.1617,499.9253 1952.1617,496.8042 Q1952.1617,493.6748 1953.4815,492.0229 Q1954.8014,490.3711 1957.3082,490.3711 Q1958.0138,490.3711 1958.6612,490.5205 Q1959.3087,490.6699 1959.8731,490.9688 L1959.8731,493.6914 Q1959.2423,493.1104 1958.6488,492.8406 Q1958.0553,492.5708 1957.4244,492.5708 Q1956.0797,492.5708 1955.3949,493.6375 Q1954.7101,494.7041 1954.7101,496.8042 Q1954.7101,498.896 1955.3949,499.9626 Q1956.0797,501.0293 1957.4244,501.0293 Q1958.0553,501.0293 1958.6488,500.7595 Q1959.2423,500.4897 1959.8731,499.9087 Z " fill="#000000"/><a href="death.svg" target="_top" title="death.svg" xlink:actuate="onRequest" xlink:href="death.svg" xlink:show="new" xlink:title="death.svg" xlink:type="simple"><text fill="#0000FF" font-family="sans-serif" font-size="14" lengthAdjust="spacing" text-decoration="underline" textLength="38.2676" x="1971.4" y="501.7793">death</text></a><line style="stroke:#181818;stroke-width:0.5;" x1="1943.4" x2="2011.6676" y1="512.4883" y2="512.4883"/><line style="stroke:#181818;stroke-width:0.5;" x1="1943.4" x2="2011.6676" y1="520.4883" y2="520.4883"/></g><!--class death_cause--><g class="entity" data-entity="death_cause" data-source-line="20" data-uid="ent0018" id="entity_death_cause"><rect fill="#F1F1F1" height="48" rx="2.5" ry="2.5" style="stroke:#181818;stroke-width:0.5;" width="115.7949" x="1919.64" y="698.4883"/><ellipse cx="1934.64" cy="714.4883" fill="#ADD1B2" rx="11" ry="11" style="stroke:#181818;stroke-width:1;"/><path d="M1937.1131,720.6313 Q1936.5321,720.9302 1935.8929,721.0796 Q1935.2538,721.229 1934.5482,721.229 Q1932.0414,721.229 1930.7215,719.5771 Q1929.4017,717.9253 1929.4017,714.8042 Q1929.4017,711.6748 1930.7215,710.0229 Q1932.0414,708.3711 1934.5482,708.3711 Q1935.2538,708.3711 1935.9012,708.5205 Q1936.5487,708.6699 1937.1131,708.9688 L1937.1131,711.6914 Q1936.4823,711.1104 1935.8888,710.8406 Q1935.2953,710.5708 1934.6644,710.5708 Q1933.3197,710.5708 1932.6349,711.6375 Q1931.9501,712.7041 1931.9501,714.8042 Q1931.9501,716.896 1932.6349,717.9626 Q1933.3197,719.0293 1934.6644,719.0293 Q1935.2953,719.0293 1935.8888,718.7595 Q1936.4823,718.4897 1937.1131,717.9087 Z " fill="#000000"/><a href="death_cause.svg" target="_top" title="death_cause.svg" xlink:actuate="onRequest" xlink:href="death_cause.svg" xlink:show="new" xlink:title="death_cause.svg" xlink:type="simple"><text fill="#0000FF" font-family="sans-serif" font-size="14" lengthAdjust="spacing" text-decoration="underline" textLength="83.7949" x="1948.64" y="719.7793">death_cause</text></a><line style="stroke:#181818;stroke-width:0.5;" x1="1920.64" x2="2034.4349" y1="730.4883" y2="730.4883"/><line style="stroke:#181818;stroke-width:0.5;" x1="1920.64" x2="2034.4349" y1="738.4883" y2="738.4883"/></g><!--class order--><g class="entity" data-entity="order" data-source-line="21" data-uid="ent0019" id="entity_order"><rect fill="#F1F1F1" height="48" rx="2.5" ry="2.5" style="stroke:#181818;stroke-width:0.5;" width="68.668" x="163.2" y="698.4883"/><ellipse cx="178.2" cy="714.4883" fill="#ADD1B2" rx="11" ry="11" style="stroke:#181818;stroke-width:1;"/><path d="M180.6731,720.6313 Q180.0921,720.9302 179.4529,721.0796 Q178.8138,721.229 178.1082,721.229 Q175.6014,721.229 174.2815,719.5771 Q172.9617,717.9253 172.9617,714.8042 Q172.9617,711.6748 174.2815,710.0229 Q175.6014,708.3711 178.1082,708.3711 Q178.8138,708.3711 179.4612,708.5205 Q180.1087,708.6699 180.6731,708.9688 L180.6731,711.6914 Q180.0423,711.1104 179.4488,710.8406 Q178.8553,710.5708 178.2244,710.5708 Q176.8797,710.5708 176.1949,711.6375 Q175.5101,712.7041 175.5101,714.8042 Q175.5101,716.896 176.1949,717.9626 Q176.8797,719.0293 178.2244,719.0293 Q178.8553,719.0293 179.4488,718.7595 Q180.0423,718.4897 180.6731,717.9087 Z " fill="#000000"/><a href="order.svg" target="_top" title="order.svg" xlink:actuate="onRequest" xlink:href="order.svg" xlink:show="new" xlink:title="order.svg" xlink:type="simple"><text fill="#0000FF" font-family="sans-serif" font-size="14" lengthAdjust="spacing" text-decoration="underline" textLength="36.668" x="192.2" y="719.7793">order</text></a><line style="stroke:#181818;stroke-width:0.5;" x1="164.2" x2="230.868" y1="730.4883" y2="730.4883"/><line style="stroke:#181818;stroke-width:0.5;" x1="164.2" x2="230.868" y1="738.4883" y2="738.4883"/></g><!--class cohort_definition--><g class="entity" data-entity="cohort_definition" data-source-line="23" data-uid="ent0020" id="entity_cohort_definition"><rect fill="#F1F1F1" height="48" rx="2.5" ry="2.5" style="stroke:#181818;stroke-width:0.5;" width="148.1357" x="2409.47" y="153.4883"/><ellipse cx="2424.47" cy="169.4883" fill="#ADD1B2" rx="11" ry="11" style="stroke:#181818;stroke-width:1;"/><path d="M2426.9431,175.6313 Q2426.3621,175.9302 2425.7229,176.0796 Q2425.0838,176.229 2424.3782,176.229 Q2421.8714,176.229 2420.5515,174.5771 Q2419.2317,172.9253 2419.2317,169.8042 Q2419.2317,166.6748 2420.5515,165.0229 Q2421.8714,163.3711 2424.3782,163.3711 Q2425.0838,163.3711 2425.7312,163.5205 Q2426.3787,163.6699 2426.9431,163.9688 L2426.9431,166.6914 Q2426.3123,166.1104 2425.7188,165.8406 Q2425.1253,165.5708 2424.4944,165.5708 Q2423.1497,165.5708 2422.4649,166.6375 Q2421.7801,167.7041 2421.7801,169.8042 Q2421.7801,171.896 2422.4649,172.9626 Q2423.1497,174.0293 2424.4944,174.0293 Q2425.1253,174.0293 2425.7188,173.7595 Q2426.3123,173.4897 2426.9431,172.9087 Z " fill="#000000"/><a href="cohort_definition.svg" target="_top" title="cohort_definition.svg" xlink:actuate="onRequest" xlink:href="cohort_definition.svg" xlink:show="new" xlink:title="cohort_definition.svg" xlink:type="simple"><text fill="#0000FF" font-family="sans-serif" font-size="14" lengthAdjust="spacing" text-decoration="underline" textLength="116.1357" x="2438.47" y="174.7793">cohort_definition</text></a><line style="stroke:#181818;stroke-width:0.5;" x1="2410.47" x2="2556.6057" y1="185.4883" y2="185.4883"/><line style="stroke:#181818;stroke-width:0.5;" x1="2410.47" x2="2556.6057" y1="193.4883" y2="193.4883"/></g><!--class cohort--><g class="entity" data-entity="cohort" data-source-line="24" data-uid="ent0021" id="entity_cohort"><rect fill="#F1F1F1" height="48" rx="2.5" ry="2.5" style="stroke:#181818;stroke-width:0.5;" width="76.0234" x="2298.53" y="153.4883"/><ellipse cx="2313.53" cy="169.4883" fill="#ADD1B2" rx="11" ry="11" style="stroke:#181818;stroke-width:1;"/><path d="M2316.0031,175.6313 Q2315.4221,175.9302 2314.7829,176.0796 Q2314.1438,176.229 2313.4382,176.229 Q2310.9314,176.229 2309.6115,174.5771 Q2308.2917,172.9253 2308.2917,169.8042 Q2308.2917,166.6748 2309.6115,165.0229 Q2310.9314,163.3711 2313.4382,163.3711 Q2314.1438,163.3711 2314.7912,163.5205 Q2315.4387,163.6699 2316.0031,163.9688 L2316.0031,166.6914 Q2315.3723,166.1104 2314.7788,165.8406 Q2314.1853,165.5708 2313.5544,165.5708 Q2312.2097,165.5708 2311.5249,166.6375 Q2310.8401,167.7041 2310.8401,169.8042 Q2310.8401,171.896 2311.5249,172.9626 Q2312.2097,174.0293 2313.5544,174.0293 Q2314.1853,174.0293 2314.7788,173.7595 Q2315.3723,173.4897 2316.0031,172.9087 Z " fill="#000000"/><a href="cohort.svg" target="_top" title="cohort.svg" xlink:actuate="onRequest" xlink:href="cohort.svg" xlink:show="new" xlink:title="cohort.svg" xlink:type="simple"><text fill="#0000FF" font-family="sans-serif" font-size="14" lengthAdjust="spacing" text-decoration="underline" textLength="44.0234" x="2327.53" y="174.7793">cohort</text></a><line style="stroke:#181818;stroke-width:0.5;" x1="2299.53" x2="2373.5534" y1="185.4883" y2="185.4883"/><line style="stroke:#181818;stroke-width:0.5;" x1="2299.53" x2="2373.5534" y1="193.4883" y2="193.4883"/></g><!--class condition--><g class="entity" data-entity="condition" data-source-line="25" data-uid="ent0022" id="entity_condition"><rect fill="#F1F1F1" height="48" rx="2.5" ry="2.5" style="stroke:#181818;stroke-width:0.5;" width="95.8887" x="357.59" y="807.4883"/><ellipse cx="372.59" cy="823.4883" fill="#ADD1B2" rx="11" ry="11" style="stroke:#181818;stroke-width:1;"/><path d="M375.0631,829.6313 Q374.4821,829.9302 373.8429,830.0796 Q373.2038,830.229 372.4982,830.229 Q369.9914,830.229 368.6715,828.5771 Q367.3517,826.9253 367.3517,823.8042 Q367.3517,820.6748 368.6715,819.0229 Q369.9914,817.3711 372.4982,817.3711 Q373.2038,817.3711 373.8512,817.5205 Q374.4987,817.6699 375.0631,817.9688 L375.0631,820.6914 Q374.4323,820.1104 373.8388,819.8406 Q373.2453,819.5708 372.6144,819.5708 Q371.2697,819.5708 370.5849,820.6375 Q369.9001,821.7041 369.9001,823.8042 Q369.9001,825.896 370.5849,826.9626 Q371.2697,828.0293 372.6144,828.0293 Q373.2453,828.0293 373.8388,827.7595 Q374.4323,827.4897 375.0631,826.9087 Z " fill="#000000"/><a href="condition.svg" target="_top" title="condition.svg" xlink:actuate="onRequest" xlink:href="condition.svg" xlink:show="new" xlink:title="condition.svg" xlink:type="simple"><text fill="#0000FF" font-family="sans-serif" font-size="14" lengthAdjust="spacing" text-decoration="underline" textLength="63.8887" x="386.59" y="828.7793">condition</text></a><line style="stroke:#181818;stroke-width:0.5;" x1="358.59" x2="452.4787" y1="839.4883" y2="839.4883"/><line style="stroke:#181818;stroke-width:0.5;" x1="358.59" x2="452.4787" y1="847.4883" y2="847.4883"/></g><!--class cancer_condition--><g class="entity" data-entity="cancer_condition" data-source-line="26" data-uid="ent0023" id="entity_cancer_condition"><rect fill="#F1F1F1" height="48" rx="2.5" ry="2.5" style="stroke:#181818;stroke-width:0.5;" width="147.1787" x="669.95" y="916.4883"/><ellipse cx="684.95" cy="932.4883" fill="#ADD1B2" rx="11" ry="11" style="stroke:#181818;stroke-width:1;"/><path d="M687.4231,938.6313 Q686.8421,938.9302 686.2029,939.0796 Q685.5638,939.229 684.8582,939.229 Q682.3514,939.229 681.0315,937.5771 Q679.7117,935.9253 679.7117,932.8042 Q679.7117,929.6748 681.0315,928.0229 Q682.3514,926.3711 684.8582,926.3711 Q685.5638,926.3711 686.2112,926.5205 Q686.8587,926.6699 687.4231,926.9688 L687.4231,929.6914 Q686.7923,929.1104 686.1988,928.8406 Q685.6053,928.5708 684.9744,928.5708 Q683.6297,928.5708 682.9449,929.6375 Q682.2601,930.7041 682.2601,932.8042 Q682.2601,934.896 682.9449,935.9626 Q683.6297,937.0293 684.9744,937.0293 Q685.6053,937.0293 686.1988,936.7595 Q686.7923,936.4897 687.4231,935.9087 Z " fill="#000000"/><a href="cancer_condition.svg" target="_top" title="cancer_condition.svg" xlink:actuate="onRequest" xlink:href="cancer_condition.svg" xlink:show="new" xlink:title="cancer_condition.svg" xlink:type="simple"><text fill="#0000FF" font-family="sans-serif" font-size="14" lengthAdjust="spacing" text-decoration="underline" textLength="115.1787" x="698.95" y="937.7793">cancer_condition</text></a><line style="stroke:#181818;stroke-width:0.5;" x1="670.95" x2="816.1287" y1="948.4883" y2="948.4883"/><line style="stroke:#181818;stroke-width:0.5;" x1="670.95" x2="816.1287" y1="956.4883" y2="956.4883"/></g><!--class imaging_result--><g class="entity" data-entity="imaging_result" data-source-line="27" data-uid="ent0024" id="entity_imaging_result"><rect fill="#F1F1F1" height="48" rx="2.5" ry="2.5" style="stroke:#181818;stroke-width:0.5;" width="132.6797" x="603.2" y="698.4883"/><ellipse cx="618.2" cy="714.4883" fill="#ADD1B2" rx="11" ry="11" style="stroke:#181818;stroke-width:1;"/><path d="M620.6731,720.6313 Q620.0921,720.9302 619.4529,721.0796 Q618.8138,721.229 618.1082,721.229 Q615.6014,721.229 614.2815,719.5771 Q612.9617,717.9253 612.9617,714.8042 Q612.9617,711.6748 614.2815,710.0229 Q615.6014,708.3711 618.1082,708.3711 Q618.8138,708.3711 619.4612,708.5205 Q620.1087,708.6699 620.6731,708.9688 L620.6731,711.6914 Q620.0423,711.1104 619.4488,710.8406 Q618.8553,710.5708 618.2244,710.5708 Q616.8797,710.5708 616.1949,711.6375 Q615.5101,712.7041 615.5101,714.8042 Q615.5101,716.896 616.1949,717.9626 Q616.8797,719.0293 618.2244,719.0293 Q618.8553,719.0293 619.4488,718.7595 Q620.0423,718.4897 620.6731,717.9087 Z " fill="#000000"/><a href="imaging_result.svg" target="_top" title="imaging_result.svg" xlink:actuate="onRequest" xlink:href="imaging_result.svg" xlink:show="new" xlink:title="imaging_result.svg" xlink:type="simple"><text fill="#0000FF" font-family="sans-serif" font-size="14" lengthAdjust="spacing" text-decoration="underline" textLength="100.6797" x="632.2" y="719.7793">imaging_result</text></a><line style="stroke:#181818;stroke-width:0.5;" x1="604.2" x2="734.8797" y1="730.4883" y2="730.4883"/><line style="stroke:#181818;stroke-width:0.5;" x1="604.2" x2="734.8797" y1="738.4883" y2="738.4883"/></g><!--class visit--><g class="entity" data-entity="visit" data-source-line="28" data-uid="ent0025" id="entity_visit"><rect fill="#F1F1F1" height="48" rx="2.5" ry="2.5" style="stroke:#181818;stroke-width:0.5;" width="59.7129" x="2047.68" y="480.4883"/><ellipse cx="2062.68" cy="496.4883" fill="#ADD1B2" rx="11" ry="11" style="stroke:#181818;stroke-width:1;"/><path d="M2065.1531,502.6313 Q2064.5721,502.9302 2063.9329,503.0796 Q2063.2938,503.229 2062.5882,503.229 Q2060.0814,503.229 2058.7615,501.5771 Q2057.4417,499.9253 2057.4417,496.8042 Q2057.4417,493.6748 2058.7615,492.0229 Q2060.0814,490.3711 2062.5882,490.3711 Q2063.2938,490.3711 2063.9412,490.5205 Q2064.5887,490.6699 2065.1531,490.9688 L2065.1531,493.6914 Q2064.5223,493.1104 2063.9288,492.8406 Q2063.3353,492.5708 2062.7044,492.5708 Q2061.3597,492.5708 2060.6749,493.6375 Q2059.9901,494.7041 2059.9901,496.8042 Q2059.9901,498.896 2060.6749,499.9626 Q2061.3597,501.0293 2062.7044,501.0293 Q2063.3353,501.0293 2063.9288,500.7595 Q2064.5223,500.4897 2065.1531,499.9087 Z " fill="#000000"/><a href="visit.svg" target="_top" title="visit.svg" xlink:actuate="onRequest" xlink:href="visit.svg" xlink:show="new" xlink:title="visit.svg" xlink:type="simple"><text fill="#0000FF" font-family="sans-serif" font-size="14" lengthAdjust="spacing" text-decoration="underline" textLength="27.7129" x="2076.68" y="501.7793">visit</text></a><line style="stroke:#181818;stroke-width:0.5;" x1="2048.68" x2="2106.3929" y1="512.4883" y2="512.4883"/><line style="stroke:#181818;stroke-width:0.5;" x1="2048.68" x2="2106.3929" y1="520.4883" y2="520.4883"/></g><!--class genomic--><g class="entity" data-entity="genomic" data-source-line="31" data-uid="ent0026" id="entity_genomic"><rect fill="#F1F1F1" height="48" rx="2.5" ry="2.5" style="stroke:#181818;stroke-width:0.5;" width="90.1055" x="1502.49" y="807.4883"/><ellipse cx="1517.49" cy="823.4883" fill="#ADD1B2" rx="11" ry="11" style="stroke:#181818;stroke-width:1;"/><path d="M1519.9631,829.6313 Q1519.3821,829.9302 1518.7429,830.0796 Q1518.1038,830.229 1517.3982,830.229 Q1514.8914,830.229 1513.5715,828.5771 Q1512.2517,826.9253 1512.2517,823.8042 Q1512.2517,820.6748 1513.5715,819.0229 Q1514.8914,817.3711 1517.3982,817.3711 Q1518.1038,817.3711 1518.7512,817.5205 Q1519.3987,817.6699 1519.9631,817.9688 L1519.9631,820.6914 Q1519.3323,820.1104 1518.7388,819.8406 Q1518.1453,819.5708 1517.5144,819.5708 Q1516.1697,819.5708 1515.4849,820.6375 Q1514.8001,821.7041 1514.8001,823.8042 Q1514.8001,825.896 1515.4849,826.9626 Q1516.1697,828.0293 1517.5144,828.0293 Q1518.1453,828.0293 1518.7388,827.7595 Q1519.3323,827.4897 1519.9631,826.9087 Z " fill="#000000"/><a href="genomic.svg" target="_top" title="genomic.svg" xlink:actuate="onRequest" xlink:href="genomic.svg" xlink:show="new" xlink:title="genomic.svg" xlink:type="simple"><text fill="#0000FF" font-family="sans-serif" font-size="14" lengthAdjust="spacing" text-decoration="underline" textLength="58.1055" x="1531.49" y="828.7793">genomic</text></a><line style="stroke:#181818;stroke-width:0.5;" x1="1503.49" x2="1591.5955" y1="839.4883" y2="839.4883"/><line style="stroke:#181818;stroke-width:0.5;" x1="1503.49" x2="1591.5955" y1="847.4883" y2="847.4883"/></g><!--class comorbidities--><g class="entity" data-entity="comorbidities" data-source-line="35" data-uid="ent0027" id="entity_comorbidities"><rect fill="#F1F1F1" height="48" rx="2.5" ry="2.5" style="stroke:#181818;stroke-width:0.5;" width="125.1055" x="2141.99" y="480.4883"/><ellipse cx="2156.99" cy="496.4883" fill="#ADD1B2" rx="11" ry="11" style="stroke:#181818;stroke-width:1;"/><path d="M2159.4631,502.6313 Q2158.8821,502.9302 2158.2429,503.0796 Q2157.6038,503.229 2156.8982,503.229 Q2154.3914,503.229 2153.0715,501.5771 Q2151.7517,499.9253 2151.7517,496.8042 Q2151.7517,493.6748 2153.0715,492.0229 Q2154.3914,490.3711 2156.8982,490.3711 Q2157.6038,490.3711 2158.2512,490.5205 Q2158.8987,490.6699 2159.4631,490.9688 L2159.4631,493.6914 Q2158.8323,493.1104 2158.2388,492.8406 Q2157.6453,492.5708 2157.0144,492.5708 Q2155.6697,492.5708 2154.9849,493.6375 Q2154.3001,494.7041 2154.3001,496.8042 Q2154.3001,498.896 2154.9849,499.9626 Q2155.6697,501.0293 2157.0144,501.0293 Q2157.6453,501.0293 2158.2388,500.7595 Q2158.8323,500.4897 2159.4631,499.9087 Z " fill="#000000"/><text fill="#000000" font-family="sans-serif" font-size="14" lengthAdjust="spacing" textLength="93.1055" x="2170.99" y="501.7793">comorbidities</text><line style="stroke:#181818;stroke-width:0.5;" x1="2142.99" x2="2266.0955" y1="512.4883" y2="512.4883"/><line style="stroke:#181818;stroke-width:0.5;" x1="2142.99" x2="2266.0955" y1="520.4883" y2="520.4883"/></g><!--class clinical_stage--><g class="entity" data-entity="clinical_stage" data-source-line="37" data-uid="ent0029" id="entity_clinical_stage"><rect fill="#F1F1F1" height="48" rx="2.5" ry="2.5" style="stroke:#181818;stroke-width:0.5;" width="122.583" x="317.25" y="1243.4883"/><ellipse cx="332.25" cy="1259.4883" fill="#ADD1B2" rx="11" ry="11" style="stroke:#181818;stroke-width:1;"/><path d="M334.7231,1265.6313 Q334.1421,1265.9302 333.5029,1266.0796 Q332.8638,1266.229 332.1582,1266.229 Q329.6514,1266.229 328.3315,1264.5771 Q327.0117,1262.9253 327.0117,1259.8042 Q327.0117,1256.6748 328.3315,1255.0229 Q329.6514,1253.3711 332.1582,1253.3711 Q332.8638,1253.3711 333.5112,1253.5205 Q334.1587,1253.6699 334.7231,1253.9688 L334.7231,1256.6914 Q334.0923,1256.1104 333.4988,1255.8406 Q332.9053,1255.5708 332.2744,1255.5708 Q330.9297,1255.5708 330.2449,1256.6375 Q329.5601,1257.7041 329.5601,1259.8042 Q329.5601,1261.896 330.2449,1262.9626 Q330.9297,1264.0293 332.2744,1264.0293 Q332.9053,1264.0293 333.4988,1263.7595 Q334.0923,1263.4897 334.7231,1262.9087 Z " fill="#000000"/><text fill="#000000" font-family="sans-serif" font-size="14" lengthAdjust="spacing" textLength="90.583" x="346.25" y="1264.7793">clinical_stage</text><line style="stroke:#181818;stroke-width:0.5;" x1="318.25" x2="438.833" y1="1275.4883" y2="1275.4883"/><line style="stroke:#181818;stroke-width:0.5;" x1="318.25" x2="438.833" y1="1283.4883" y2="1283.4883"/></g><!--class tumor_stage--><g class="entity" data-entity="tumor_stage" data-source-line="37" data-uid="ent0030" id="entity_tumor_stage"><rect fill="#F1F1F1" height="48" rx="2.5" ry="2.5" style="stroke:#181818;stroke-width:0.5;" width="116.957" x="475.06" y="1134.4883"/><ellipse cx="490.06" cy="1150.4883" fill="#ADD1B2" rx="11" ry="11" style="stroke:#181818;stroke-width:1;"/><path d="M492.5331,1156.6313 Q491.9521,1156.9302 491.3129,1157.0796 Q490.6738,1157.229 489.9682,1157.229 Q487.4614,1157.229 486.1415,1155.5771 Q484.8217,1153.9253 484.8217,1150.8042 Q484.8217,1147.6748 486.1415,1146.0229 Q487.4614,1144.3711 489.9682,1144.3711 Q490.6738,1144.3711 491.3212,1144.5205 Q491.9687,1144.6699 492.5331,1144.9688 L492.5331,1147.6914 Q491.9023,1147.1104 491.3088,1146.8406 Q490.7153,1146.5708 490.0844,1146.5708 Q488.7397,1146.5708 488.0549,1147.6375 Q487.3701,1148.7041 487.3701,1150.8042 Q487.3701,1152.896 488.0549,1153.9626 Q488.7397,1155.0293 490.0844,1155.0293 Q490.7153,1155.0293 491.3088,1154.7595 Q491.9023,1154.4897 492.5331,1153.9087 Z " fill="#000000"/><text fill="#000000" font-family="sans-serif" font-size="14" lengthAdjust="spacing" textLength="84.957" x="504.06" y="1155.7793">tumor_stage</text><line style="stroke:#181818;stroke-width:0.5;" x1="476.06" x2="591.017" y1="1166.4883" y2="1166.4883"/><line style="stroke:#181818;stroke-width:0.5;" x1="476.06" x2="591.017" y1="1174.4883" y2="1174.4883"/></g><!--class pathological_stage--><g class="entity" data-entity="pathological_stage" data-source-line="38" data-uid="ent0033" id="entity_pathological_stage"><rect fill="#F1F1F1" height="48" rx="2.5" ry="2.5" style="stroke:#181818;stroke-width:0.5;" width="159.0732" x="475" y="1243.4883"/><ellipse cx="490" cy="1259.4883" fill="#ADD1B2" rx="11" ry="11" style="stroke:#181818;stroke-width:1;"/><path d="M492.4731,1265.6313 Q491.8921,1265.9302 491.2529,1266.0796 Q490.6138,1266.229 489.9082,1266.229 Q487.4014,1266.229 486.0815,1264.5771 Q484.7617,1262.9253 484.7617,1259.8042 Q484.7617,1256.6748 486.0815,1255.0229 Q487.4014,1253.3711 489.9082,1253.3711 Q490.6138,1253.3711 491.2612,1253.5205 Q491.9087,1253.6699 492.4731,1253.9688 L492.4731,1256.6914 Q491.8423,1256.1104 491.2488,1255.8406 Q490.6553,1255.5708 490.0244,1255.5708 Q488.6797,1255.5708 487.9949,1256.6375 Q487.3101,1257.7041 487.3101,1259.8042 Q487.3101,1261.896 487.9949,1262.9626 Q488.6797,1264.0293 490.0244,1264.0293 Q490.6553,1264.0293 491.2488,1263.7595 Q491.8423,1263.4897 492.4731,1262.9087 Z " fill="#000000"/><text fill="#000000" font-family="sans-serif" font-size="14" lengthAdjust="spacing" textLength="127.0732" x="504" y="1264.7793">pathological_stage</text><line style="stroke:#181818;stroke-width:0.5;" x1="476" x2="633.0732" y1="1275.4883" y2="1275.4883"/><line style="stroke:#181818;stroke-width:0.5;" x1="476" x2="633.0732" y1="1283.4883" y2="1283.4883"/></g><!--class performance_status--><g class="entity" data-entity="performance_status" data-source-line="39" data-uid="ent0036" id="entity_performance_status"><rect fill="#F1F1F1" height="48" rx="2.5" ry="2.5" style="stroke:#181818;stroke-width:0.5;" width="166.4424" x="1076.32" y="807.4883"/><ellipse cx="1091.32" cy="823.4883" fill="#ADD1B2" rx="11" ry="11" style="stroke:#181818;stroke-width:1;"/><path d="M1093.7931,829.6313 Q1093.2121,829.9302 1092.5729,830.0796 Q1091.9338,830.229 1091.2282,830.229 Q1088.7214,830.229 1087.4015,828.5771 Q1086.0817,826.9253 1086.0817,823.8042 Q1086.0817,820.6748 1087.4015,819.0229 Q1088.7214,817.3711 1091.2282,817.3711 Q1091.9338,817.3711 1092.5812,817.5205 Q1093.2287,817.6699 1093.7931,817.9688 L1093.7931,820.6914 Q1093.1623,820.1104 1092.5688,819.8406 Q1091.9753,819.5708 1091.3444,819.5708 Q1089.9997,819.5708 1089.3149,820.6375 Q1088.6301,821.7041 1088.6301,823.8042 Q1088.6301,825.896 1089.3149,826.9626 Q1089.9997,828.0293 1091.3444,828.0293 Q1091.9753,828.0293 1092.5688,827.7595 Q1093.1623,827.4897 1093.7931,826.9087 Z " fill="#000000"/><text fill="#000000" font-family="sans-serif" font-size="14" lengthAdjust="spacing" textLength="134.4424" x="1105.32" y="828.7793">performance_status</text><line style="stroke:#181818;stroke-width:0.5;" x1="1077.32" x2="1241.7624" y1="839.4883" y2="839.4883"/><line style="stroke:#181818;stroke-width:0.5;" x1="1077.32" x2="1241.7624" y1="847.4883" y2="847.4883"/></g><!--class assessment--><g class="entity" data-entity="assessment" data-source-line="39" data-uid="ent0037" id="entity_assessment"><rect fill="#F1F1F1" height="48" rx="2.5" ry="2.5" style="stroke:#181818;stroke-width:0.5;" width="110.873" x="1196.1" y="698.4883"/><ellipse cx="1211.1" cy="714.4883" fill="#ADD1B2" rx="11" ry="11" style="stroke:#181818;stroke-width:1;"/><path d="M1213.5731,720.6313 Q1212.9921,720.9302 1212.3529,721.0796 Q1211.7138,721.229 1211.0082,721.229 Q1208.5014,721.229 1207.1815,719.5771 Q1205.8617,717.9253 1205.8617,714.8042 Q1205.8617,711.6748 1207.1815,710.0229 Q1208.5014,708.3711 1211.0082,708.3711 Q1211.7138,708.3711 1212.3612,708.5205 Q1213.0087,708.6699 1213.5731,708.9688 L1213.5731,711.6914 Q1212.9423,711.1104 1212.3488,710.8406 Q1211.7553,710.5708 1211.1244,710.5708 Q1209.7797,710.5708 1209.0949,711.6375 Q1208.4101,712.7041 1208.4101,714.8042 Q1208.4101,716.896 1209.0949,717.9626 Q1209.7797,719.0293 1211.1244,719.0293 Q1211.7553,719.0293 1212.3488,718.7595 Q1212.9423,718.4897 1213.5731,717.9087 Z " fill="#000000"/><text fill="#000000" font-family="sans-serif" font-size="14" lengthAdjust="spacing" textLength="78.873" x="1225.1" y="719.7793">assessment</text><line style="stroke:#181818;stroke-width:0.5;" x1="1197.1" x2="1305.973" y1="730.4883" y2="730.4883"/><line style="stroke:#181818;stroke-width:0.5;" x1="1197.1" x2="1305.973" y1="738.4883" y2="738.4883"/></g><!--class physical_activity_status--><g class="entity" data-entity="physical_activity_status" data-source-line="40" data-uid="ent0040" id="entity_physical_activity_status"><rect fill="#F1F1F1" height="48" rx="2.5" ry="2.5" style="stroke:#181818;stroke-width:0.5;" width="190.1426" x="1277.47" y="807.4883"/><ellipse cx="1292.47" cy="823.4883" fill="#ADD1B2" rx="11" ry="11" style="stroke:#181818;stroke-width:1;"/><path d="M1294.9431,829.6313 Q1294.3621,829.9302 1293.7229,830.0796 Q1293.0838,830.229 1292.3782,830.229 Q1289.8714,830.229 1288.5515,828.5771 Q1287.2317,826.9253 1287.2317,823.8042 Q1287.2317,820.6748 1288.5515,819.0229 Q1289.8714,817.3711 1292.3782,817.3711 Q1293.0838,817.3711 1293.7312,817.5205 Q1294.3787,817.6699 1294.9431,817.9688 L1294.9431,820.6914 Q1294.3123,820.1104 1293.7188,819.8406 Q1293.1253,819.5708 1292.4944,819.5708 Q1291.1497,819.5708 1290.4649,820.6375 Q1289.7801,821.7041 1289.7801,823.8042 Q1289.7801,825.896 1290.4649,826.9626 Q1291.1497,828.0293 1292.4944,828.0293 Q1293.1253,828.0293 1293.7188,827.7595 Q1294.3123,827.4897 1294.9431,826.9087 Z " fill="#000000"/><text fill="#000000" font-family="sans-serif" font-size="14" lengthAdjust="spacing" textLength="158.1426" x="1306.47" y="828.7793">physical_activity_status</text><line style="stroke:#181818;stroke-width:0.5;" x1="1278.47" x2="1466.6126" y1="839.4883" y2="839.4883"/><line style="stroke:#181818;stroke-width:0.5;" x1="1278.47" x2="1466.6126" y1="847.4883" y2="847.4883"/></g><!--class histology_morphology_behavior--><g class="entity" data-entity="histology_morphology_behavior" data-source-line="41" data-uid="ent0043" id="entity_histology_morphology_behavior"><rect fill="#F1F1F1" height="48" rx="2.5" ry="2.5" style="stroke:#181818;stroke-width:0.5;" width="249.2393" x="709.92" y="1243.4883"/><ellipse cx="724.92" cy="1259.4883" fill="#ADD1B2" rx="11" ry="11" style="stroke:#181818;stroke-width:1;"/><path d="M727.3931,1265.6313 Q726.8121,1265.9302 726.1729,1266.0796 Q725.5338,1266.229 724.8282,1266.229 Q722.3214,1266.229 721.0015,1264.5771 Q719.6817,1262.9253 719.6817,1259.8042 Q719.6817,1256.6748 721.0015,1255.0229 Q722.3214,1253.3711 724.8282,1253.3711 Q725.5338,1253.3711 726.1812,1253.5205 Q726.8287,1253.6699 727.3931,1253.9688 L727.3931,1256.6914 Q726.7623,1256.1104 726.1688,1255.8406 Q725.5753,1255.5708 724.9444,1255.5708 Q723.5997,1255.5708 722.9149,1256.6375 Q722.2301,1257.7041 722.2301,1259.8042 Q722.2301,1261.896 722.9149,1262.9626 Q723.5997,1264.0293 724.9444,1264.0293 Q725.5753,1264.0293 726.1688,1263.7595 Q726.7623,1263.4897 727.3931,1262.9087 Z " fill="#000000"/><text fill="#000000" font-family="sans-serif" font-size="14" lengthAdjust="spacing" textLength="217.2393" x="738.92" y="1264.7793">histology_morphology_behavior</text><line style="stroke:#181818;stroke-width:0.5;" x1="710.92" x2="958.1593" y1="1275.4883" y2="1275.4883"/><line style="stroke:#181818;stroke-width:0.5;" x1="710.92" x2="958.1593" y1="1283.4883" y2="1283.4883"/></g><!--class disease_extent--><g class="entity" data-entity="disease_extent" data-source-line="41" data-uid="ent0044" id="entity_disease_extent"><rect fill="#F1F1F1" height="48" rx="2.5" ry="2.5" style="stroke:#181818;stroke-width:0.5;" width="132.8096" x="934.13" y="1134.4883"/><ellipse cx="949.13" cy="1150.4883" fill="#ADD1B2" rx="11" ry="11" style="stroke:#181818;stroke-width:1;"/><path d="M951.6031,1156.6313 Q951.0221,1156.9302 950.3829,1157.0796 Q949.7438,1157.229 949.0382,1157.229 Q946.5314,1157.229 945.2115,1155.5771 Q943.8917,1153.9253 943.8917,1150.8042 Q943.8917,1147.6748 945.2115,1146.0229 Q946.5314,1144.3711 949.0382,1144.3711 Q949.7438,1144.3711 950.3912,1144.5205 Q951.0387,1144.6699 951.6031,1144.9688 L951.6031,1147.6914 Q950.9723,1147.1104 950.3788,1146.8406 Q949.7853,1146.5708 949.1544,1146.5708 Q947.8097,1146.5708 947.1249,1147.6375 Q946.4401,1148.7041 946.4401,1150.8042 Q946.4401,1152.896 947.1249,1153.9626 Q947.8097,1155.0293 949.1544,1155.0293 Q949.7853,1155.0293 950.3788,1154.7595 Q950.9723,1154.4897 951.6031,1153.9087 Z " fill="#000000"/><text fill="#000000" font-family="sans-serif" font-size="14" lengthAdjust="spacing" textLength="100.8096" x="963.13" y="1155.7793">disease_extent</text><line style="stroke:#181818;stroke-width:0.5;" x1="935.13" x2="1065.9396" y1="1166.4883" y2="1166.4883"/><line style="stroke:#181818;stroke-width:0.5;" x1="935.13" x2="1065.9396" y1="1174.4883" y2="1174.4883"/></g><!--class laterality--><g class="entity" data-entity="laterality" data-source-line="42" data-uid="ent0047" id="entity_laterality"><rect fill="#F1F1F1" height="48" rx="2.5" ry="2.5" style="stroke:#181818;stroke-width:0.5;" width="90.9189" x="994.08" y="1243.4883"/><ellipse cx="1009.08" cy="1259.4883" fill="#ADD1B2" rx="11" ry="11" style="stroke:#181818;stroke-width:1;"/><path d="M1011.5531,1265.6313 Q1010.9721,1265.9302 1010.3329,1266.0796 Q1009.6938,1266.229 1008.9882,1266.229 Q1006.4814,1266.229 1005.1615,1264.5771 Q1003.8417,1262.9253 1003.8417,1259.8042 Q1003.8417,1256.6748 1005.1615,1255.0229 Q1006.4814,1253.3711 1008.9882,1253.3711 Q1009.6938,1253.3711 1010.3412,1253.5205 Q1010.9887,1253.6699 1011.5531,1253.9688 L1011.5531,1256.6914 Q1010.9223,1256.1104 1010.3288,1255.8406 Q1009.7353,1255.5708 1009.1044,1255.5708 Q1007.7597,1255.5708 1007.0749,1256.6375 Q1006.3901,1257.7041 1006.3901,1259.8042 Q1006.3901,1261.896 1007.0749,1262.9626 Q1007.7597,1264.0293 1009.1044,1264.0293 Q1009.7353,1264.0293 1010.3288,1263.7595 Q1010.9223,1263.4897 1011.5531,1262.9087 Z " fill="#000000"/><text fill="#000000" font-family="sans-serif" font-size="14" lengthAdjust="spacing" textLength="58.9189" x="1023.08" y="1264.7793">laterality</text><line style="stroke:#181818;stroke-width:0.5;" x1="995.08" x2="1083.9989" y1="1275.4883" y2="1275.4883"/><line style="stroke:#181818;stroke-width:0.5;" x1="995.08" x2="1083.9989" y1="1283.4883" y2="1283.4883"/></g><!--class regime--><g class="entity" data-entity="regime" data-source-line="43" data-uid="ent0050" id="entity_regime"><rect fill="#F1F1F1" height="48" rx="2.5" ry="2.5" style="stroke:#181818;stroke-width:0.5;" width="79.1748" x="2587.95" y="44.4883"/><ellipse cx="2602.95" cy="60.4883" fill="#ADD1B2" rx="11" ry="11" style="stroke:#181818;stroke-width:1;"/><path d="M2605.4231,66.6313 Q2604.8421,66.9302 2604.2029,67.0796 Q2603.5638,67.229 2602.8582,67.229 Q2600.3514,67.229 2599.0315,65.5771 Q2597.7117,63.9253 2597.7117,60.8042 Q2597.7117,57.6748 2599.0315,56.0229 Q2600.3514,54.3711 2602.8582,54.3711 Q2603.5638,54.3711 2604.2112,54.5205 Q2604.8587,54.6699 2605.4231,54.9688 L2605.4231,57.6914 Q2604.7923,57.1104 2604.1988,56.8406 Q2603.6053,56.5708 2602.9744,56.5708 Q2601.6297,56.5708 2600.9449,57.6375 Q2600.2601,58.7041 2600.2601,60.8042 Q2600.2601,62.896 2600.9449,63.9626 Q2601.6297,65.0293 2602.9744,65.0293 Q2603.6053,65.0293 2604.1988,64.7595 Q2604.7923,64.4897 2605.4231,63.9087 Z " fill="#000000"/><text fill="#000000" font-family="sans-serif" font-size="14" lengthAdjust="spacing" textLength="47.1748" x="2616.95" y="65.7793">regime</text><line style="stroke:#181818;stroke-width:0.5;" x1="2588.95" x2="2666.1248" y1="76.4883" y2="76.4883"/><line style="stroke:#181818;stroke-width:0.5;" x1="2588.95" x2="2666.1248" y1="84.4883" y2="84.4883"/></g><!--class disease_status--><g class="entity" data-entity="disease_status" data-source-line="45" data-uid="ent0055" id="entity_disease_status"><rect fill="#F1F1F1" height="48" rx="2.5" ry="2.5" style="stroke:#181818;stroke-width:0.5;" width="130.6289" x="1400.22" y="1134.4883"/><ellipse cx="1415.22" cy="1150.4883" fill="#ADD1B2" rx="11" ry="11" style="stroke:#181818;stroke-width:1;"/><path d="M1417.6931,1156.6313 Q1417.1121,1156.9302 1416.4729,1157.0796 Q1415.8338,1157.229 1415.1282,1157.229 Q1412.6214,1157.229 1411.3015,1155.5771 Q1409.9817,1153.9253 1409.9817,1150.8042 Q1409.9817,1147.6748 1411.3015,1146.0229 Q1412.6214,1144.3711 1415.1282,1144.3711 Q1415.8338,1144.3711 1416.4812,1144.5205 Q1417.1287,1144.6699 1417.6931,1144.9688 L1417.6931,1147.6914 Q1417.0623,1147.1104 1416.4688,1146.8406 Q1415.8753,1146.5708 1415.2444,1146.5708 Q1413.8997,1146.5708 1413.2149,1147.6375 Q1412.5301,1148.7041 1412.5301,1150.8042 Q1412.5301,1152.896 1413.2149,1153.9626 Q1413.8997,1155.0293 1415.2444,1155.0293 Q1415.8753,1155.0293 1416.4688,1154.7595 Q1417.0623,1154.4897 1417.6931,1153.9087 Z " fill="#000000"/><text fill="#000000" font-family="sans-serif" font-size="14" lengthAdjust="spacing" textLength="98.6289" x="1429.22" y="1155.7793">disease_status</text><line style="stroke:#181818;stroke-width:0.5;" x1="1401.22" x2="1529.8489" y1="1166.4883" y2="1166.4883"/><line style="stroke:#181818;stroke-width:0.5;" x1="1401.22" x2="1529.8489" y1="1174.4883" y2="1174.4883"/></g><!--class patient_comorbidities--><g class="entity" data-entity="patient_comorbidities" data-source-line="49" data-uid="ent0062" id="entity_patient_comorbidities"><rect fill="#F1F1F1" height="48" rx="2.5" ry="2.5" style="stroke:#181818;stroke-width:0.5;" width="179.6563" x="1412.71" y="698.4883"/><ellipse cx="1427.71" cy="714.4883" fill="#ADD1B2" rx="11" ry="11" style="stroke:#181818;stroke-width:1;"/><path d="M1430.1831,720.6313 Q1429.6021,720.9302 1428.9629,721.0796 Q1428.3238,721.229 1427.6182,721.229 Q1425.1114,721.229 1423.7915,719.5771 Q1422.4717,717.9253 1422.4717,714.8042 Q1422.4717,711.6748 1423.7915,710.0229 Q1425.1114,708.3711 1427.6182,708.3711 Q1428.3238,708.3711 1428.9712,708.5205 Q1429.6187,708.6699 1430.1831,708.9688 L1430.1831,711.6914 Q1429.5523,711.1104 1428.9588,710.8406 Q1428.3653,710.5708 1427.7344,710.5708 Q1426.3897,710.5708 1425.7049,711.6375 Q1425.0201,712.7041 1425.0201,714.8042 Q1425.0201,716.896 1425.7049,717.9626 Q1426.3897,719.0293 1427.7344,719.0293 Q1428.3653,719.0293 1428.9588,718.7595 Q1429.5523,718.4897 1430.1831,717.9087 Z " fill="#000000"/><text fill="#000000" font-family="sans-serif" font-size="14" lengthAdjust="spacing" textLength="147.6563" x="1441.71" y="719.7793">patient_comorbidities</text><line style="stroke:#181818;stroke-width:0.5;" x1="1413.71" x2="1591.3663" y1="730.4883" y2="730.4883"/><line style="stroke:#181818;stroke-width:0.5;" x1="1413.71" x2="1591.3663" y1="738.4883" y2="738.4883"/></g><!--class study--><g class="entity" data-entity="study" data-source-line="51" data-uid="ent0065" id="entity_study"><rect fill="#F1F1F1" height="48" rx="2.5" ry="2.5" style="stroke:#181818;stroke-width:0.5;" width="69.1875" x="2301.94" y="44.4883"/><ellipse cx="2316.94" cy="60.4883" fill="#ADD1B2" rx="11" ry="11" style="stroke:#181818;stroke-width:1;"/><path d="M2319.4131,66.6313 Q2318.8321,66.9302 2318.1929,67.0796 Q2317.5538,67.229 2316.8482,67.229 Q2314.3414,67.229 2313.0215,65.5771 Q2311.7017,63.9253 2311.7017,60.8042 Q2311.7017,57.6748 2313.0215,56.0229 Q2314.3414,54.3711 2316.8482,54.3711 Q2317.5538,54.3711 2318.2012,54.5205 Q2318.8487,54.6699 2319.4131,54.9688 L2319.4131,57.6914 Q2318.7823,57.1104 2318.1888,56.8406 Q2317.5953,56.5708 2316.9644,56.5708 Q2315.6197,56.5708 2314.9349,57.6375 Q2314.2501,58.7041 2314.2501,60.8042 Q2314.2501,62.896 2314.9349,63.9626 Q2315.6197,65.0293 2316.9644,65.0293 Q2317.5953,65.0293 2318.1888,64.7595 Q2318.7823,64.4897 2319.4131,63.9087 Z " fill="#000000"/><text fill="#000000" font-family="sans-serif" font-size="14" lengthAdjust="spacing" textLength="37.1875" x="2330.94" y="65.7793">study</text><line style="stroke:#181818;stroke-width:0.5;" x1="2302.94" x2="2370.1275" y1="76.4883" y2="76.4883"/><line style="stroke:#181818;stroke-width:0.5;" x1="2302.94" x2="2370.1275" y1="84.4883" y2="84.4883"/></g><!--class data_set--><g class="entity" data-entity="data_set" data-source-line="52" data-uid="ent0068" id="entity_data_set"><rect fill="#F1F1F1" height="48" rx="2.5" ry="2.5" style="stroke:#181818;stroke-width:0.5;" width="88.6836" x="2292.2" y="262.4883"/><ellipse cx="2307.2" cy="278.4883" fill="#ADD1B2" rx="11" ry="11" style="stroke:#181818;stroke-width:1;"/><path d="M2309.6731,284.6313 Q2309.0921,284.9302 2308.4529,285.0796 Q2307.8138,285.229 2307.1082,285.229 Q2304.6014,285.229 2303.2815,283.5771 Q2301.9617,281.9253 2301.9617,278.8042 Q2301.9617,275.6748 2303.2815,274.0229 Q2304.6014,272.3711 2307.1082,272.3711 Q2307.8138,272.3711 2308.4612,272.5205 Q2309.1087,272.6699 2309.6731,272.9688 L2309.6731,275.6914 Q2309.0423,275.1104 2308.4488,274.8406 Q2307.8553,274.5708 2307.2244,274.5708 Q2305.8797,274.5708 2305.1949,275.6375 Q2304.5101,276.7041 2304.5101,278.8042 Q2304.5101,280.896 2305.1949,281.9626 Q2305.8797,283.0293 2307.2244,283.0293 Q2307.8553,283.0293 2308.4488,282.7595 Q2309.0423,282.4897 2309.6731,281.9087 Z " fill="#000000"/><text fill="#000000" font-family="sans-serif" font-size="14" lengthAdjust="spacing" textLength="56.6836" x="2321.2" y="283.7793">data_set</text><line style="stroke:#181818;stroke-width:0.5;" x1="2293.2" x2="2379.8836" y1="294.4883" y2="294.4883"/><line style="stroke:#181818;stroke-width:0.5;" x1="2293.2" x2="2379.8836" y1="302.4883" y2="302.4883"/></g><!--class file--><g class="entity" data-entity="file" data-source-line="53" data-uid="ent0071" id="entity_file"><rect fill="#F1F1F1" height="48" rx="2.5" ry="2.5" style="stroke:#181818;stroke-width:0.5;" width="53.041" x="2263.02" y="371.4883"/><ellipse cx="2278.02" cy="387.4883" fill="#ADD1B2" rx="11" ry="11" style="stroke:#181818;stroke-width:1;"/><path d="M2280.4931,393.6313 Q2279.9121,393.9302 2279.2729,394.0796 Q2278.6338,394.229 2277.9282,394.229 Q2275.4214,394.229 2274.1015,392.5771 Q2272.7817,390.9253 2272.7817,387.8042 Q2272.7817,384.6748 2274.1015,383.0229 Q2275.4214,381.3711 2277.9282,381.3711 Q2278.6338,381.3711 2279.2812,381.5205 Q2279.9287,381.6699 2280.4931,381.9688 L2280.4931,384.6914 Q2279.8623,384.1104 2279.2688,383.8406 Q2278.6753,383.5708 2278.0444,383.5708 Q2276.6997,383.5708 2276.0149,384.6375 Q2275.3301,385.7041 2275.3301,387.8042 Q2275.3301,389.896 2276.0149,390.9626 Q2276.6997,392.0293 2278.0444,392.0293 Q2278.6753,392.0293 2279.2688,391.7595 Q2279.8623,391.4897 2280.4931,390.9087 Z " fill="#000000"/><text fill="#000000" font-family="sans-serif" font-size="14" lengthAdjust="spacing" textLength="21.041" x="2292.02" y="392.7793">file</text><line style="stroke:#181818;stroke-width:0.5;" x1="2264.02" x2="2315.061" y1="403.4883" y2="403.4883"/><line style="stroke:#181818;stroke-width:0.5;" x1="2264.02" x2="2315.061" y1="411.4883" y2="411.4883"/></g><!--class form--><g class="entity" data-entity="form" data-source-line="54" data-uid="ent0074" id="entity_form"><rect fill="#F1F1F1" height="48" rx="2.5" ry="2.5" style="stroke:#181818;stroke-width:0.5;" width="64.5459" x="2351.27" y="371.4883"/><ellipse cx="2366.27" cy="387.4883" fill="#ADD1B2" rx="11" ry="11" style="stroke:#181818;stroke-width:1;"/><path d="M2368.7431,393.6313 Q2368.1621,393.9302 2367.5229,394.0796 Q2366.8838,394.229 2366.1782,394.229 Q2363.6714,394.229 2362.3515,392.5771 Q2361.0317,390.9253 2361.0317,387.8042 Q2361.0317,384.6748 2362.3515,383.0229 Q2363.6714,381.3711 2366.1782,381.3711 Q2366.8838,381.3711 2367.5312,381.5205 Q2368.1787,381.6699 2368.7431,381.9688 L2368.7431,384.6914 Q2368.1123,384.1104 2367.5188,383.8406 Q2366.9253,383.5708 2366.2944,383.5708 Q2364.9497,383.5708 2364.2649,384.6375 Q2363.5801,385.7041 2363.5801,387.8042 Q2363.5801,389.896 2364.2649,390.9626 Q2364.9497,392.0293 2366.2944,392.0293 Q2366.9253,392.0293 2367.5188,391.7595 Q2368.1123,391.4897 2368.7431,390.9087 Z " fill="#000000"/><text fill="#000000" font-family="sans-serif" font-size="14" lengthAdjust="spacing" textLength="32.5459" x="2380.27" y="392.7793">form</text><line style="stroke:#181818;stroke-width:0.5;" x1="2352.27" x2="2414.8159" y1="403.4883" y2="403.4883"/><line style="stroke:#181818;stroke-width:0.5;" x1="2352.27" x2="2414.8159" y1="411.4883" y2="411.4883"/></g><!--class pathology_result--><g class="entity" data-entity="pathology_result" data-source-line="57" data-uid="ent0081" id="entity_pathology_result"><rect fill="#F1F1F1" height="48" rx="2.5" ry="2.5" style="stroke:#181818;stroke-width:0.5;" width="145.3945" x="770.84" y="698.4883"/><ellipse cx="785.84" cy="714.4883" fill="#ADD1B2" rx="11" ry="11" style="stroke:#181818;stroke-width:1;"/><path d="M788.3131,720.6313 Q787.7321,720.9302 787.0929,721.0796 Q786.4538,721.229 785.7482,721.229 Q783.2414,721.229 781.9215,719.5771 Q780.6017,717.9253 780.6017,714.8042 Q780.6017,711.6748 781.9215,710.0229 Q783.2414,708.3711 785.7482,708.3711 Q786.4538,708.3711 787.1012,708.5205 Q787.7487,708.6699 788.3131,708.9688 L788.3131,711.6914 Q787.6823,711.1104 787.0888,710.8406 Q786.4953,710.5708 785.8644,710.5708 Q784.5197,710.5708 783.8349,711.6375 Q783.1501,712.7041 783.1501,714.8042 Q783.1501,716.896 783.8349,717.9626 Q784.5197,719.0293 785.8644,719.0293 Q786.4953,719.0293 787.0888,718.7595 Q787.6823,718.4897 788.3131,717.9087 Z " fill="#000000"/><text fill="#000000" font-family="sans-serif" font-size="14" lengthAdjust="spacing" textLength="113.3945" x="799.84" y="719.7793">pathology_result</text><line style="stroke:#181818;stroke-width:0.5;" x1="771.84" x2="915.2345" y1="730.4883" y2="730.4883"/><line style="stroke:#181818;stroke-width:0.5;" x1="771.84" x2="915.2345" y1="738.4883" y2="738.4883"/></g><!--class genomic_molecular_result--><g class="entity" data-entity="genomic_molecular_result" data-source-line="58" data-uid="ent0084" id="entity_genomic_molecular_result"><rect fill="#F1F1F1" height="48" rx="2.5" ry="2.5" style="stroke:#181818;stroke-width:0.5;" width="209.625" x="951.73" y="698.4883"/><ellipse cx="966.73" cy="714.4883" fill="#ADD1B2" rx="11" ry="11" style="stroke:#181818;stroke-width:1;"/><path d="M969.2031,720.6313 Q968.6221,720.9302 967.9829,721.0796 Q967.3438,721.229 966.6382,721.229 Q964.1314,721.229 962.8115,719.5771 Q961.4917,717.9253 961.4917,714.8042 Q961.4917,711.6748 962.8115,710.0229 Q964.1314,708.3711 966.6382,708.3711 Q967.3438,708.3711 967.9912,708.5205 Q968.6387,708.6699 969.2031,708.9688 L969.2031,711.6914 Q968.5723,711.1104 967.9788,710.8406 Q967.3853,710.5708 966.7544,710.5708 Q965.4097,710.5708 964.7249,711.6375 Q964.0401,712.7041 964.0401,714.8042 Q964.0401,716.896 964.7249,717.9626 Q965.4097,719.0293 966.7544,719.0293 Q967.3853,719.0293 967.9788,718.7595 Q968.5723,718.4897 969.2031,717.9087 Z " fill="#000000"/><text fill="#000000" font-family="sans-serif" font-size="14" lengthAdjust="spacing" textLength="177.625" x="980.73" y="719.7793">genomic_molecular_result</text><line style="stroke:#181818;stroke-width:0.5;" x1="952.73" x2="1160.355" y1="730.4883" y2="730.4883"/><line style="stroke:#181818;stroke-width:0.5;" x1="952.73" x2="1160.355" y1="738.4883" y2="738.4883"/></g><!--class non_cancer_condition--><g class="entity" data-entity="non_cancer_condition" data-source-line="60" data-uid="ent0089" id="entity_non_cancer_condition"><rect fill="#F1F1F1" height="48" rx="2.5" ry="2.5" style="stroke:#181818;stroke-width:0.5;" width="180.1553" x="357.46" y="916.4883"/><ellipse cx="372.46" cy="932.4883" fill="#ADD1B2" rx="11" ry="11" style="stroke:#181818;stroke-width:1;"/><path d="M374.9331,938.6313 Q374.3521,938.9302 373.7129,939.0796 Q373.0738,939.229 372.3682,939.229 Q369.8614,939.229 368.5415,937.5771 Q367.2217,935.9253 367.2217,932.8042 Q367.2217,929.6748 368.5415,928.0229 Q369.8614,926.3711 372.3682,926.3711 Q373.0738,926.3711 373.7212,926.5205 Q374.3687,926.6699 374.9331,926.9688 L374.9331,929.6914 Q374.3023,929.1104 373.7088,928.8406 Q373.1153,928.5708 372.4844,928.5708 Q371.1397,928.5708 370.4549,929.6375 Q369.7701,930.7041 369.7701,932.8042 Q369.7701,934.896 370.4549,935.9626 Q371.1397,937.0293 372.4844,937.0293 Q373.1153,937.0293 373.7088,936.7595 Q374.3023,936.4897 374.9331,935.9087 Z " fill="#000000"/><text fill="#000000" font-family="sans-serif" font-size="14" lengthAdjust="spacing" textLength="148.1553" x="386.46" y="937.7793">non_cancer_condition</text><line style="stroke:#181818;stroke-width:0.5;" x1="358.46" x2="536.6153" y1="948.4883" y2="948.4883"/><line style="stroke:#181818;stroke-width:0.5;" x1="358.46" x2="536.6153" y1="956.4883" y2="956.4883"/></g><!--class tumor_grade--><g class="entity" data-entity="tumor_grade" data-source-line="81" data-uid="ent0100" id="entity_tumor_grade"><rect fill="#F1F1F1" height="48" rx="2.5" ry="2.5" style="stroke:#181818;stroke-width:0.5;" width="119.124" x="683.98" y="1134.4883"/><ellipse cx="698.98" cy="1150.4883" fill="#ADD1B2" rx="11" ry="11" style="stroke:#181818;stroke-width:1;"/><path d="M701.4531,1156.6313 Q700.8721,1156.9302 700.2329,1157.0796 Q699.5938,1157.229 698.8882,1157.229 Q696.3814,1157.229 695.0615,1155.5771 Q693.7417,1153.9253 693.7417,1150.8042 Q693.7417,1147.6748 695.0615,1146.0229 Q696.3814,1144.3711 698.8882,1144.3711 Q699.5938,1144.3711 700.2412,1144.5205 Q700.8887,1144.6699 701.4531,1144.9688 L701.4531,1147.6914 Q700.8223,1147.1104 700.2288,1146.8406 Q699.6353,1146.5708 699.0044,1146.5708 Q697.6597,1146.5708 696.9749,1147.6375 Q696.2901,1148.7041 696.2901,1150.8042 Q696.2901,1152.896 696.9749,1153.9626 Q697.6597,1155.0293 699.0044,1155.0293 Q699.6353,1155.0293 700.2288,1154.7595 Q700.8223,1154.4897 701.4531,1153.9087 Z " fill="#000000"/><text fill="#000000" font-family="sans-serif" font-size="14" lengthAdjust="spacing" textLength="87.124" x="712.98" y="1155.7793">tumor_grade</text><line style="stroke:#181818;stroke-width:0.5;" x1="684.98" x2="802.104" y1="1166.4883" y2="1166.4883"/><line style="stroke:#181818;stroke-width:0.5;" x1="684.98" x2="802.104" y1="1174.4883" y2="1174.4883"/></g><!--link patient to comorbidities--><g class="link" data-entity-1="patient" data-entity-2="comorbidities" data-source-line="35" data-uid="lnk28" id="link_patient_comorbidities"><path codeLine="35" d="M2052.73,310.6083 C2085.37,352.0683 2149.7789,433.9137 2182.5089,475.4937" fill="none" id="patient-to-comorbidities" style="stroke:#181818;stroke-width:1;stroke-dasharray:7.0,7.0;"/><polygon fill="#181818" points="2186.22,480.2083,2183.7964,470.6623,2183.1274,476.2794,2177.5102,475.6105,2186.22,480.2083" style="stroke:#181818;stroke-width:1;"/><text fill="#000000" font-family="sans-serif" font-size="13" lengthAdjust="spacing" textLength="21.874" x="2138.83" y="400.5566">has</text></g><!--reverse link tumor_stage to clinical_stage--><g class="link" data-entity-1="tumor_stage" data-entity-2="clinical_stage" data-source-line="37" data-uid="lnk32" id="link_tumor_stage_clinical_stage"><path codeLine="37" d="M484.7073,1193.195 C458.8673,1211.035 438.3,1225.2383 412.47,1243.0583" fill="none" id="tumor_stage-backto-clinical_stage" style="stroke:#181818;stroke-width:1;"/><polygon fill="none" points="499.52,1182.9683,481.2984,1188.2574,488.1162,1198.1325,499.52,1182.9683" style="stroke:#181818;stroke-width:1;"/></g><!--reverse link tumor_stage to pathological_stage--><g class="link" data-entity-1="tumor_stage" data-entity-2="pathological_stage" data-source-line="38" data-uid="lnk35" id="link_tumor_stage_pathological_stage"><path codeLine="38" d="M541.6153,1200.6316 C545.1153,1218.4716 546.44,1225.2383 549.94,1243.0583" fill="none" id="tumor_stage-backto-pathological_stage" style="stroke:#181818;stroke-width:1;"/><polygon fill="none" points="538.15,1182.9683,535.7276,1201.7867,547.5031,1199.4765,538.15,1182.9683" style="stroke:#181818;stroke-width:1;"/></g><!--reverse link assessment to performance_status--><g class="link" data-entity-1="assessment" data-entity-2="performance_status" data-source-line="39" data-uid="lnk39" id="link_assessment_performance_status"><path codeLine="39" d="M1219.6143,760.6165 C1204.2743,778.4565 1195.01,789.2383 1179.68,807.0583" fill="none" id="assessment-backto-performance_status" style="stroke:#181818;stroke-width:1;"/><polygon fill="none" points="1231.35,746.9683,1215.0649,756.7046,1224.1638,764.5284,1231.35,746.9683" style="stroke:#181818;stroke-width:1;"/></g><!--reverse link assessment to physical_activity_status--><g class="link" data-entity-1="assessment" data-entity-2="physical_activity_status" data-source-line="40" data-uid="lnk42" id="link_assessment_physical_activity_status"><path codeLine="40" d="M1291.5758,758.8903 C1311.7558,776.7303 1325.89,789.2383 1346.05,807.0583" fill="none" id="assessment-backto-physical_activity_status" style="stroke:#181818;stroke-width:1;"/><polygon fill="none" points="1278.09,746.9683,1287.6018,763.3855,1295.5498,754.395,1278.09,746.9683" style="stroke:#181818;stroke-width:1;"/></g><!--reverse link disease_extent to histology_morphology_behavior--><g class="link" data-entity-1="disease_extent" data-entity-2="histology_morphology_behavior" data-source-line="41" data-uid="lnk46" id="link_disease_extent_histology_morphology_behavior"><path codeLine="41" d="M948.9802,1192.7196 C921.3002,1210.5596 898.54,1225.2383 870.88,1243.0583" fill="none" id="disease_extent-backto-histology_morphology_behavior" style="stroke:#181818;stroke-width:1;"/><polygon fill="none" points="964.11,1182.9683,945.7297,1187.6763,952.2306,1197.7629,964.11,1182.9683" style="stroke:#181818;stroke-width:1;"/></g><!--reverse link disease_extent to laterality--><g class="link" data-entity-1="disease_extent" data-entity-2="laterality" data-source-line="42" data-uid="lnk49" id="link_disease_extent_laterality"><path codeLine="42" d="M1015.262,1199.8807 C1021.762,1217.7207 1024.5,1225.2383 1031,1243.0583" fill="none" id="disease_extent-backto-laterality" style="stroke:#181818;stroke-width:1;"/><polygon fill="none" points="1009.1,1182.9683,1009.6246,1201.9347,1020.8995,1197.8267,1009.1,1182.9683" style="stroke:#181818;stroke-width:1;"/></g><!--link regime to medication--><g class="link" data-entity-1="regime" data-entity-2="medication" data-source-line="43" data-uid="lnk52" id="link_regime_medication"><path codeLine="43" d="M2627.54,92.6083 C2627.54,134.0683 2627.54,214.6283 2627.54,256.2083" fill="none" id="regime-to-medication" style="stroke:#181818;stroke-width:1;stroke-dasharray:7.0,7.0;"/><polygon fill="#181818" points="2627.54,262.2083,2631.54,253.2083,2627.54,257.2083,2623.54,253.2083,2627.54,262.2083" style="stroke:#181818;stroke-width:1;"/><text fill="#000000" font-family="sans-serif" font-size="13" lengthAdjust="spacing" textLength="47.6963" x="2628.54" y="182.5566">isPartof</text></g><!--reverse link observation to disease_extent--><g class="link" data-entity-1="observation" data-entity-2="disease_extent" data-source-line="44" data-uid="lnk54" id="link_observation_disease_extent"><path codeLine="44" d="M1325.5167,619.4025 C1434.2967,627.7925 1645.54,652.2883 1645.54,721.4883 C1645.54,721.4883 1645.54,721.4883 1645.54,1050.4883 C1645.54,1108.6283 1232.44,1142.2383 1067.44,1153.3483" fill="none" id="observation-backto-disease_extent" style="stroke:#181818;stroke-width:1;"/><polygon fill="none" points="1307.57,618.0183,1325.0553,625.3847,1325.9781,613.4202,1307.57,618.0183" style="stroke:#181818;stroke-width:1;"/></g><!--reverse link observation to disease_status--><g class="link" data-entity-1="observation" data-entity-2="disease_status" data-source-line="45" data-uid="lnk57" id="link_observation_disease_status"><path codeLine="45" d="M1325.4824,617.3034 C1424.9924,621.7034 1610.05,633.8383 1671.54,667.4883 C1698.94,682.4883 1716.54,690.2483 1716.54,721.4883 C1716.54,721.4883 1716.54,721.4883 1716.54,1050.4883 C1716.54,1131.1383 1605.53,1151.8383 1531.16,1156.6583" fill="none" id="observation-backto-disease_status" style="stroke:#181818;stroke-width:1;"/><polygon fill="none" points="1307.5,616.5083,1325.2174,623.2975,1325.7475,611.3093,1307.5,616.5083" style="stroke:#181818;stroke-width:1;"/></g><!--reverse link observation to assessment--><g class="link" data-entity-1="observation" data-entity-2="assessment" data-source-line="46" data-uid="lnk59" id="link_observation_assessment"><path codeLine="46" d="M1251.54,655.9683 C1251.54,673.8083 1251.54,680.2383 1251.54,698.0583" fill="none" id="observation-backto-assessment" style="stroke:#181818;stroke-width:1;"/><polygon fill="none" points="1251.54,637.9683,1245.54,655.9683,1257.54,655.9683,1251.54,637.9683" style="stroke:#181818;stroke-width:1;"/></g><!--reverse link observation to tumor_stage--><g class="link" data-entity-1="observation" data-entity-2="tumor_stage" data-source-line="47" data-uid="lnk61" id="link_observation_tumor_stage"><path codeLine="47" d="M1177.4911,615.0938 C974.0511,617.3038 304.54,631.2583 304.54,721.4883 C304.54,721.4883 304.54,721.4883 304.54,1050.4883 C304.54,1125.5283 406.71,1148.0583 474.57,1154.7483" fill="none" id="observation-backto-tumor_stage" style="stroke:#181818;stroke-width:1;"/><polygon fill="none" points="1195.49,614.8983,1177.4259,609.0942,1177.5562,621.0935,1195.49,614.8983" style="stroke:#181818;stroke-width:1;"/></g><!--reverse link observation to patient_comorbidities--><g class="link" data-entity-1="observation" data-entity-2="patient_comorbidities" data-source-line="49" data-uid="lnk64" id="link_observation_patient_comorbidities"><path codeLine="49" d="M1324.3405,642.3867 C1348.4505,651.7867 1360.13,656.6083 1385.54,667.4883 C1407.96,677.0883 1432.49,688.2983 1453.28,698.0183" fill="none" id="observation-backto-patient_comorbidities" style="stroke:#181818;stroke-width:1;"/><polygon fill="none" points="1307.57,635.8483,1322.161,647.9769,1326.52,636.7966,1307.57,635.8483" style="stroke:#181818;stroke-width:1;"/></g><!--reverse link study to cohort--><g class="link" data-entity-1="study" data-entity-2="cohort" data-source-line="51" data-uid="lnk67" id="link_study_cohort"><path codeLine="51" d="M2336.54,98.9683 C2336.54,116.8083 2336.54,135.2383 2336.54,153.0583" fill="none" id="study-backto-cohort" style="stroke:#181818;stroke-width:1;stroke-dasharray:7.0,7.0;"/><polygon fill="#181818" points="2336.54,92.9683,2332.54,101.9683,2336.54,97.9683,2340.54,101.9683,2336.54,92.9683" style="stroke:#181818;stroke-width:1;"/></g><!--reverse link cohort to data_set--><g class="link" data-entity-1="cohort" data-entity-2="data_set" data-source-line="52" data-uid="lnk70" id="link_cohort_data_set"><path codeLine="52" d="M2336.54,207.9683 C2336.54,225.8083 2336.54,244.2383 2336.54,262.0583" fill="none" id="cohort-backto-data_set" style="stroke:#181818;stroke-width:1;stroke-dasharray:7.0,7.0;"/><polygon fill="#181818" points="2336.54,201.9683,2332.54,210.9683,2336.54,206.9683,2340.54,210.9683,2336.54,201.9683" style="stroke:#181818;stroke-width:1;"/></g><!--reverse link data_set to file--><g class="link" data-entity-1="data_set" data-entity-2="file" data-source-line="53" data-uid="lnk73" id="link_data_set_file"><path codeLine="53" d="M2323.8086,316.4624 C2315.9786,334.3024 2307.66,353.2383 2299.83,371.0583" fill="none" id="data_set-backto-file" style="stroke:#181818;stroke-width:1;stroke-dasharray:7.0,7.0;"/><polygon fill="#181818" points="2326.22,310.9683,2318.9402,317.6019,2324.2105,315.5467,2326.2657,320.817,2326.22,310.9683" style="stroke:#181818;stroke-width:1;"/></g><!--reverse link data_set to form--><g class="link" data-entity-1="data_set" data-entity-2="form" data-source-line="54" data-uid="lnk76" id="link_data_set_form"><path codeLine="54" d="M2349.264,316.4613 C2357.104,334.3013 2365.42,353.2383 2373.25,371.0583" fill="none" id="data_set-backto-form" style="stroke:#181818;stroke-width:1;stroke-dasharray:7.0,7.0;"/><polygon fill="#181818" points="2346.85,310.9683,2346.8089,320.8171,2348.8616,315.5458,2354.1329,317.5984,2346.85,310.9683" style="stroke:#181818;stroke-width:1;"/></g><!--reverse link observation to laboratory_result--><g class="link" data-entity-1="observation" data-entity-2="laboratory_result" data-source-line="55" data-uid="lnk78" id="link_observation_laboratory_result"><path codeLine="55" d="M1177.5508,620.8229 C1062.5308,631.0529 809.71,656.1883 585.54,698.4883 C579.93,699.5483 574.16,700.7483 568.37,702.0283" fill="none" id="observation-backto-laboratory_result" style="stroke:#181818;stroke-width:1;"/><polygon fill="none" points="1195.48,619.2283,1177.0192,614.8465,1178.0823,626.7993,1195.48,619.2283" style="stroke:#181818;stroke-width:1;"/></g><!--reverse link observation to imaging_result--><g class="link" data-entity-1="observation" data-entity-2="imaging_result" data-source-line="56" data-uid="lnk80" id="link_observation_imaging_result"><path codeLine="56" d="M1177.7234,624.561 C1085.1834,637.501 912.58,663.3983 753.54,698.4883 C747.93,699.7283 742.13,701.1083 736.33,702.5483" fill="none" id="observation-backto-imaging_result" style="stroke:#181818;stroke-width:1;"/><polygon fill="none" points="1195.55,622.0683,1176.8925,618.6188,1178.5543,630.5032,1195.55,622.0683" style="stroke:#181818;stroke-width:1;"/></g><!--reverse link observation to pathology_result--><g class="link" data-entity-1="observation" data-entity-2="pathology_result" data-source-line="57" data-uid="lnk83" id="link_observation_pathology_result"><path codeLine="57" d="M1177.8285,633.8235 C1105.2485,652.8535 996.33,681.4183 916.47,702.3583" fill="none" id="observation-backto-pathology_result" style="stroke:#181818;stroke-width:1;"/><polygon fill="none" points="1195.24,629.2583,1176.3068,628.0196,1179.3503,639.6273,1195.24,629.2583" style="stroke:#181818;stroke-width:1;"/></g><!--reverse link observation to genomic_molecular_result--><g class="link" data-entity-1="observation" data-entity-2="genomic_molecular_result" data-source-line="58" data-uid="lnk86" id="link_observation_genomic_molecular_result"><path codeLine="58" d="M1192.9598,646.6277 C1160.4498,664.4677 1131.72,680.2383 1099.23,698.0583" fill="none" id="observation-backto-genomic_molecular_result" style="stroke:#181818;stroke-width:1;"/><polygon fill="none" points="1208.74,637.9683,1190.0733,641.3677,1195.8463,651.8878,1208.74,637.9683" style="stroke:#181818;stroke-width:1;"/></g><!--reverse link condition to cancer_condition--><g class="link" data-entity-1="condition" data-entity-2="cancer_condition" data-source-line="59" data-uid="lnk88" id="link_condition_cancer_condition"><path codeLine="59" d="M457.96,864.9488 C476.1,875.5788 483.09,878.4483 504.54,886.4883 C558.16,906.5983 621.55,920.2183 669.57,928.6183" fill="none" id="condition-backto-cancer_condition" style="stroke:#181818;stroke-width:1;"/><polygon fill="none" points="442.43,855.8483,454.9265,870.1255,460.9935,859.7722,442.43,855.8483" style="stroke:#181818;stroke-width:1;"/></g><!--reverse link condition to non_cancer_condition--><g class="link" data-entity-1="condition" data-entity-2="non_cancer_condition" data-source-line="60" data-uid="lnk91" id="link_condition_non_cancer_condition"><path codeLine="60" d="M421.3348,872.7245 C428.3348,890.5645 431.35,898.2383 438.34,916.0583" fill="none" id="condition-backto-non_cancer_condition" style="stroke:#181818;stroke-width:1;"/><polygon fill="none" points="414.76,855.9683,415.7493,874.9161,426.9202,870.533,414.76,855.9683" style="stroke:#181818;stroke-width:1;"/></g><!--link laboratory_result to cancer_condition--><g class="link" data-entity-1="laboratory_result" data-entity-2="cancer_condition" data-source-line="70" data-uid="lnk92" id="link_laboratory_result_cancer_condition"><path codeLine="70" d="M508.85,746.6683 C527.1,774.8883 560.84,822.8083 598.54,855.4883 C626.89,880.0683 658.1422,898.4879 687.4722,913.4079" fill="none" id="laboratory_result-to-cancer_condition" style="stroke:#181818;stroke-width:1;stroke-dasharray:7.0,7.0;"/><polygon fill="#181818" points="692.82,916.1283,686.6119,908.4824,688.3635,913.8613,682.9846,915.6129,692.82,916.1283" style="stroke:#181818;stroke-width:1;"/><text fill="#000000" font-family="sans-serif" font-size="13" lengthAdjust="spacing" textLength="75.3975" x="599.54" y="836.5566">evidenceFor</text></g><!--link imaging_result to cancer_condition--><g class="link" data-entity-1="imaging_result" data-entity-2="cancer_condition" data-source-line="71" data-uid="lnk93" id="link_imaging_result_cancer_condition"><path codeLine="71" d="M672.41,746.9583 C676.17,773.8083 683.94,818.8083 697.54,855.4883 C705.51,876.9983 715.1222,894.6142 725.1722,910.9942" fill="none" id="imaging_result-to-cancer_condition" style="stroke:#181818;stroke-width:1;stroke-dasharray:7.0,7.0;"/><polygon fill="#181818" points="728.31,916.1083,727.0127,906.3452,725.6952,911.8465,720.1939,910.529,728.31,916.1083" style="stroke:#181818;stroke-width:1;"/><text fill="#000000" font-family="sans-serif" font-size="13" lengthAdjust="spacing" textLength="75.3975" x="698.54" y="836.5566">evidenceFor</text></g><!--link pathology_result to cancer_condition--><g class="link" data-entity-1="pathology_result" data-entity-2="cancer_condition" data-source-line="72" data-uid="lnk94" id="link_pathology_result_cancer_condition"><path codeLine="72" d="M832.84,746.6083 C813.64,788.0683 776.0807,869.1835 756.8307,910.7635" fill="none" id="pathology_result-to-cancer_condition" style="stroke:#181818;stroke-width:1;stroke-dasharray:7.0,7.0;"/><polygon fill="#181818" points="754.31,916.2083,761.721,909.7216,756.4106,911.6709,754.4612,906.3606,754.31,916.2083" style="stroke:#181818;stroke-width:1;"/><text fill="#000000" font-family="sans-serif" font-size="13" lengthAdjust="spacing" textLength="75.3975" x="805.3" y="836.5566">evidenceFor</text></g><!--link genomic_molecular_result to cancer_condition--><g class="link" data-entity-1="genomic_molecular_result" data-entity-2="cancer_condition" data-source-line="73" data-uid="lnk95" id="link_genomic_molecular_result_cancer_condition"><path codeLine="73" d="M1029.41,746.9683 C997.13,774.4283 941.09,820.5583 889.54,855.4883 C856.61,877.7983 822.7415,897.2427 793.2715,913.2627" fill="none" id="genomic_molecular_result-to-cancer_condition" style="stroke:#181818;stroke-width:1;stroke-dasharray:7.0,7.0;"/><polygon fill="#181818" points="788,916.1283,797.8176,915.3442,792.3929,913.7403,793.9968,908.3156,788,916.1283" style="stroke:#181818;stroke-width:1;"/><text fill="#000000" font-family="sans-serif" font-size="13" lengthAdjust="spacing" textLength="75.3975" x="956.08" y="836.5566">evidenceFor</text></g><!--link observation to specimen--><g class="link" data-entity-1="observation" data-entity-2="specimen" data-source-line="77" data-uid="lnk96" id="link_observation_specimen"><path codeLine="77" d="M1307.55,614.6583 C1420.44,615.9283 1670.67,623.7583 1742.54,667.4883 C1796.05,700.0383 1826.387,764.7302 1840.357,801.4602" fill="none" id="observation-to-specimen" style="stroke:#181818;stroke-width:1;stroke-dasharray:7.0,7.0;"/><polygon fill="#181818" points="1842.49,807.0683,1843.0292,797.2342,1840.7125,802.3949,1835.5518,800.0782,1842.49,807.0683" style="stroke:#181818;stroke-width:1;"/></g><!--link cancer_condition to disease_status--><g class="link" data-entity-1="cancer_condition" data-entity-2="disease_status" data-source-line="78" data-uid="lnk97" id="link_cancer_condition_disease_status"><path codeLine="78" d="M817.41,963.5883 C958.75,1005.8683 1259.5717,1095.8686 1394.1817,1136.1386" fill="none" id="cancer_condition-to-disease_status" style="stroke:#181818;stroke-width:1;stroke-dasharray:7.0,7.0;"/><polygon fill="#181818" points="1399.93,1137.8583,1392.454,1131.4466,1395.1398,1136.4252,1390.1611,1139.111,1399.93,1137.8583" style="stroke:#181818;stroke-width:1;"/><text fill="#000000" font-family="sans-serif" font-size="13" lengthAdjust="spacing" textLength="21.874" x="1183.21" y="1054.5566">has</text></g><!--link cancer_condition to disease_extent--><g class="link" data-entity-1="cancer_condition" data-entity-2="disease_extent" data-source-line="79" data-uid="lnk98" id="link_cancer_condition_disease_extent"><path codeLine="79" d="M771.04,964.6083 C820.38,1006.0683 918.7769,1088.7678 968.2469,1130.3478" fill="none" id="cancer_condition-to-disease_extent" style="stroke:#181818;stroke-width:1;stroke-dasharray:7.0,7.0;"/><polygon fill="#181818" points="972.84,1134.2083,968.5241,1125.3554,969.0124,1130.9912,963.3767,1131.4795,972.84,1134.2083" style="stroke:#181818;stroke-width:1;"/><text fill="#000000" font-family="sans-serif" font-size="13" lengthAdjust="spacing" textLength="21.874" x="900.69" y="1054.5566">has</text></g><!--link cancer_condition to tumor_stage--><g class="link" data-entity-1="cancer_condition" data-entity-2="tumor_stage" data-source-line="80" data-uid="lnk99" id="link_cancer_condition_tumor_stage"><path codeLine="80" d="M721.06,964.6083 C680.75,1006.0683 600.7722,1088.3261 560.3522,1129.9061" fill="none" id="cancer_condition-to-tumor_stage" style="stroke:#181818;stroke-width:1;stroke-dasharray:7.0,7.0;"/><polygon fill="#181818" points="556.17,1134.2083,565.3115,1130.5431,559.6552,1130.6231,559.5752,1124.9668,556.17,1134.2083" style="stroke:#181818;stroke-width:1;"/><text fill="#000000" font-family="sans-serif" font-size="13" lengthAdjust="spacing" textLength="21.874" x="662.13" y="1054.5566">has</text></g><!--link cancer_condition to tumor_grade--><g class="link" data-entity-1="cancer_condition" data-entity-2="tumor_grade" data-source-line="81" data-uid="lnk101" id="link_cancer_condition_tumor_grade"><path codeLine="81" d="M743.54,964.6083 C743.54,1006.0683 743.54,1086.6283 743.54,1128.2083" fill="none" id="cancer_condition-to-tumor_grade" style="stroke:#181818;stroke-width:1;stroke-dasharray:7.0,7.0;"/><polygon fill="#181818" points="743.54,1134.2083,747.54,1125.2083,743.54,1129.2083,739.54,1125.2083,743.54,1134.2083" style="stroke:#181818;stroke-width:1;"/><text fill="#000000" font-family="sans-serif" font-size="13" lengthAdjust="spacing" textLength="21.874" x="744.54" y="1054.5566">has</text></g><!--reverse link report to pathology_report--><g class="link" data-entity-1="report" data-entity-2="pathology_report" data-source-line="85" data-uid="lnk103" id="link_report_pathology_report"><path codeLine="85" d="M1713.0873,543.1248 C1727.0973,560.9648 1735.15,571.2383 1749.15,589.0583" fill="none" id="report-backto-pathology_report" style="stroke:#181818;stroke-width:1;"/><polygon fill="none" points="1701.97,528.9683,1708.3685,546.8305,1717.8061,539.419,1701.97,528.9683" style="stroke:#181818;stroke-width:1;"/></g><!--link report to report_section--><g class="link" data-entity-1="report" data-entity-2="report_section" data-source-line="86" data-uid="lnk105" id="link_report_report_section"><path codeLine="86" d="M1720.82,504.4883 C1737.71,504.4883 1758.18,504.4883 1777.47,504.4883" fill="none" id="report-report_section" style="stroke:#181818;stroke-width:1;stroke-dasharray:7.0,7.0;"/><text fill="#000000" font-family="sans-serif" font-size="13" lengthAdjust="spacing" textLength="21.874" x="1738.62" y="498.0566">has</text></g><!--link death to death_cause--><g class="link" data-entity-1="death" data-entity-2="death_cause" data-source-line="87" data-uid="lnk106" id="link_death_death_cause"><path codeLine="87" d="M1977.54,528.6083 C1977.54,570.0683 1977.54,656.6283 1977.54,698.2083" fill="none" id="death-death_cause" style="stroke:#181818;stroke-width:1;stroke-dasharray:7.0,7.0;"/></g><!--link patient to death--><g class="link" data-entity-1="patient" data-entity-2="death" data-source-line="88" data-uid="lnk107" id="link_patient_death"><path codeLine="88" d="M2028.44,310.6083 C2017.5,352.0683 1994.65,438.6283 1983.68,480.2083" fill="none" id="patient-death" style="stroke:#181818;stroke-width:1;stroke-dasharray:7.0,7.0;"/></g><!--link patient to visit--><g class="link" data-entity-1="patient" data-entity-2="visit" data-source-line="89" data-uid="lnk108" id="link_patient_visit"><path codeLine="89" d="M2039.14,310.6083 C2047.39,352.0683 2064.63,438.6283 2072.9,480.2083" fill="none" id="patient-visit" style="stroke:#181818;stroke-width:1;stroke-dasharray:7.0,7.0;"/></g><!--link organization to provider--><g class="link" data-entity-1="organization" data-entity-2="provider" data-source-line="90" data-uid="lnk110" id="link_organization_provider"><path codeLine="90" d="M271.54,92.6083 C271.54,134.0683 271.54,220.6283 271.54,262.2083" fill="none" id="organization-provider" style="stroke:#181818;stroke-width:1;stroke-dasharray:7.0,7.0;"/></g><!--link site to organization--><g class="link" data-entity-1="site" data-entity-2="organization" data-source-line="91" data-uid="lnk111" id="link_site_organization"><path codeLine="91" d="M178.13,68.4883 C189.56,68.4883 183,68.4883 194.43,68.4883" fill="none" id="site-to-organization" style="stroke:#181818;stroke-width:1;"/><polygon fill="none" points="212.43,68.4883,194.43,62.4883,194.43,74.4883,212.43,68.4883" style="stroke:#181818;stroke-width:1;"/></g><!--link therapeutic_procedure to procedure--><g class="link" data-entity-1="therapeutic_procedure" data-entity-2="procedure" data-source-line="92" data-uid="lnk112" id="link_therapeutic_procedure_procedure"><path codeLine="92" d="M105.96,310.6083 C117.48,352.0683 141.52,438.6283 153.07,480.2083" fill="none" id="therapeutic_procedure-procedure" style="stroke:#181818;stroke-width:1;stroke-dasharray:7.0,7.0;"/></g><!--link cohort to cohort_definition--><g class="link" data-entity-1="cohort" data-entity-2="cohort_definition" data-source-line="93" data-uid="lnk114" id="link_cohort_cohort_definition"><path codeLine="93" d="M2375.01,177.4883 C2386.46,177.4883 2397.9,177.4883 2409.35,177.4883" fill="none" id="cohort-cohort_definition" style="stroke:#181818;stroke-width:1;stroke-dasharray:7.0,7.0;"/></g><!--link specimen to cancer_specimen--><g class="link" data-entity-1="specimen" data-entity-2="cancer_specimen" data-source-line="94" data-uid="lnk116" id="link_specimen_cancer_specimen"><path codeLine="94" d="M1850.54,855.6083 C1850.54,897.0683 1850.54,983.6283 1850.54,1025.2083" fill="none" id="specimen-cancer_specimen" style="stroke:#181818;stroke-width:1;stroke-dasharray:7.0,7.0;"/></g><!--link procedure to order--><g class="link" data-entity-1="procedure" data-entity-2="order" data-source-line="95" data-uid="lnk118" id="link_procedure_order"><path codeLine="95" d="M163.61,528.6083 C170.9,570.0683 186.13,656.6283 193.44,698.2083" fill="none" id="procedure-order" style="stroke:#181818;stroke-width:1;stroke-dasharray:7.0,7.0;"/></g><!--link pathology_report to specimen--><g class="link" data-entity-1="pathology_report" data-entity-2="specimen" data-source-line="96" data-uid="lnk119" id="link_pathology_report_specimen"><path codeLine="96" d="M1792.31,637.9583 C1800.14,646.5783 1808.14,656.8383 1813.54,667.4883 C1836.89,713.5683 1845.65,774.3683 1848.83,807.1483" fill="none" id="pathology_report-specimen" style="stroke:#181818;stroke-width:1;stroke-dasharray:7.0,7.0;"/></g><!--link observation to genomic--><g class="link" data-entity-1="observation" data-entity-2="genomic" data-source-line="97" data-uid="lnk120" id="link_observation_genomic"><path codeLine="97" d="M1273.53,637.7783 C1300.59,665.6683 1348.73,712.8283 1395.54,746.4883 C1429.44,770.8683 1471.15,793.4583 1502.3,809.0483" fill="none" id="observation-genomic" style="stroke:#181818;stroke-width:1;stroke-dasharray:7.0,7.0;"/></g><!--link patient to report--><g class="link" data-entity-1="patient" data-entity-2="report" data-source-line="98" data-uid="lnk121" id="link_patient_report"><path codeLine="98" d="M1996.64,310.8083 C1928.93,352.4783 1787.96,439.2283 1720.75,480.5883" fill="none" id="patient-report" style="stroke:#181818;stroke-width:1;stroke-dasharray:7.0,7.0;"/></g><!--link provider to report--><g class="link" data-entity-1="provider" data-entity-2="report" data-source-line="99" data-uid="lnk122" id="link_provider_report"><path codeLine="99" d="M316.13,294.3083 C530.12,327.0483 1449.55,467.6983 1646.36,497.7983" fill="none" id="provider-report" style="stroke:#181818;stroke-width:1;stroke-dasharray:7.0,7.0;"/></g><!--link provider to order--><g class="link" data-entity-1="provider" data-entity-2="order" data-source-line="100" data-uid="lnk123" id="link_provider_order"><path codeLine="100" d="M268.79,310.8283 C266.47,332.4783 263.54,365.6183 263.54,394.4883 C263.54,394.4883 263.54,394.4883 263.54,614.4883 C263.54,647.0083 241.18,677.9183 222.49,698.0783" fill="none" id="provider-order" style="stroke:#181818;stroke-width:1;stroke-dasharray:7.0,7.0;"/></g><!--link provider to procedure--><g class="link" data-entity-1="provider" data-entity-2="procedure" data-source-line="101" data-uid="lnk124" id="link_provider_procedure"><path codeLine="101" d="M255.67,310.8483 C249.72,319.9483 243.07,330.5583 237.54,340.4883 C210.59,388.8583 183.72,448.0083 169.64,480.0883" fill="none" id="provider-procedure" style="stroke:#181818;stroke-width:1;stroke-dasharray:7.0,7.0;"/></g><!--SRC=[ZLTBZvmm3BxdLw2vp8dv0QDgfHwsLQK-LjhZQeKo90EHWA0aJ4iV_xqc3uWXxCuj_lBPJcp762DCmxFFZz-_F6PVPILAscJV9ECDAHkgTTPJ8tXdie_FsU7bnKidVQl2pklh8VlpZtXwoncOC49sNcC1hD8YUZtlHScIiq7nu2V8pbEGa8wfkQ8z7umeYxL-Si_QIkuWk_AYkRh5TuWGQoEIaMP3Br9H8zLOAAw79aHjWrih6nJPqZqlHSl34O9eDOE054hQbLmLAxqLQjLN64u4DRLiP3MTgPSgoZk2Gm4W41b2wf7IBhNGl8nYZi58DK0uPwgYdVYDaXP1BciHi2w-cs1SBRLdnL1wLi1LheK9bJOjNL9WWQj1eeSGH9TxcNW4Z4D0FTkkBTMkjhoYf8FcCTiXYuwJLs5QhcdNFZ2R2vQodaBD-5Lq8hh41dS5jKPnOTfTP23IMb4xXjrvsIjuALNt6zKL75T-sf1eQIMw2ZzT35eZ648cRWAgm6lQjLMmgn1Vpwnu9rjHUgwNBDklFV_ekom4jvKLTAvQb3hByxyFeVykb9imj2cqeMPOKKZeulafVu0ujb9Tn1G2hhDpLbCz6t4Cew20sac4uq9EIsUtubcM3_rasGnWmsCaD8A8jwMHdgkhLEsKWlcGZWK1uLfF_aXVZzgQeV38uK9Ze2QujT36zHzmqljMTE4rlGcf0fy9pQdc1Vzb9fs66kZ_3HZU8KGVi0_v2IZGTYfean0deP-eCl9Ai4em57qLPiRgy35bkKXgDuvlOlleSosgBcayb0HETTAIbgK0KpQOQano_0k6dTD3fit0HiAeeT290-WOv2eQxf5085FErzZsGvdmkdgFwLlE7w0zZdzEK28DBuU6gZUucrRYEJD0EjaLxxEEJD2ganfF9fus0n3wGLLSZOcTg0gdpVX5XZhySIN7ieQkKBYHPdoJgIWJzp7ZG-rm23akk6ifwvYSCyeOH1fgF9Nj7Hq-VMi1_IJL9lrtg6phuGwb_GAvGtadqvDc6AyWec4ai_X5CcXgC2n0-fOIGZlWv01D-HcM1nAFezZmjX1FJFxiygMd-VRZMlpxTD_FtgF7lUa-BdouME0U4-JjtPyKv5-DBWJ7zBCBFjBDxfpPUGJgZso6Ml_Wd4HMysT-QlZLv662FK-7TgCPX3yUhUAlgiCHOZ_xP1ukfnQOeo6KsFlQ9XIFhoJzOpEPN3h4Ta0Bn_QjUFqxuDpFjUCcGGSkLhU1GZgu4iEaWYxjGxhSUWUp_Z4q7-C_]--></g></svg>