<svg xmlns="http://www.w3.org/2000/svg" xmlns:xlink="http://www.w3.org/1999/xlink" contentStyleType="text/css" data-diagram-type="CLASS" height="304px" preserveAspectRatio="none" style="width:288px;height:304px;background:#FFFFFF;" version="1.1" viewBox="0 0 288 304" width="288px" zoomAndPan="magnify"><title>location</title><defs/><g><g class="title" data-source-line="1"><text fill="#000000" font-family="sans-serif" font-size="14" font-weight="bold" lengthAdjust="spacing" textLength="57.5381" x="111.5117" y="23.5352">location</text></g><!--class location--><g class="entity" data-entity="location" data-source-line="2" data-uid="ent0002" id="entity_location"><rect fill="#F1F1F1" height="245.8594" rx="2.5" ry="2.5" style="stroke:#181818;stroke-width:0.5;" width="267.5615" x="7" y="44.4883"/><ellipse cx="109.4707" cy="60.4883" fill="#ADD1B2" rx="11" ry="11" style="stroke:#181818;stroke-width:1;"/><path d="M111.9438,66.6313 Q111.3628,66.9302 110.7236,67.0796 Q110.0845,67.229 109.3789,67.229 Q106.8721,67.229 105.5522,65.5771 Q104.2324,63.9253 104.2324,60.8042 Q104.2324,57.6748 105.5522,56.0229 Q106.8721,54.3711 109.3789,54.3711 Q110.0845,54.3711 110.7319,54.5205 Q111.3794,54.6699 111.9438,54.9688 L111.9438,57.6914 Q111.313,57.1104 110.7195,56.8406 Q110.126,56.5708 109.4951,56.5708 Q108.1504,56.5708 107.4656,57.6375 Q106.7808,58.7041 106.7808,60.8042 Q106.7808,62.896 107.4656,63.9626 Q108.1504,65.0293 109.4951,65.0293 Q110.126,65.0293 110.7195,64.7595 Q111.313,64.4897 111.9438,63.9087 Z " fill="#000000"/><text fill="#000000" font-family="sans-serif" font-size="14" lengthAdjust="spacing" textLength="54.1201" x="129.9707" y="65.7793">location</text><line style="stroke:#181818;stroke-width:0.5;" x1="8" x2="273.5615" y1="76.4883" y2="76.4883"/><text fill="#000000" font-family="sans-serif" font-size="14" lengthAdjust="spacing" textLength="61.3525" x="13" y="94.0234">identifier</text><text fill="#000000" font-family="sans-serif" font-size="14" lengthAdjust="spacing" textLength="106.8799" x="13" y="110.5117">identifierSource</text><text fill="#000000" font-family="sans-serif" font-size="14" lengthAdjust="spacing" textLength="62.0088" x="13" y="127">address1</text><text fill="#000000" font-family="sans-serif" font-size="14" lengthAdjust="spacing" textLength="62.0088" x="13" y="143.4883">address2</text><text fill="#000000" font-family="sans-serif" font-size="14" lengthAdjust="spacing" textLength="23.7686" x="13" y="159.9766">city</text><text fill="#000000" font-family="sans-serif" font-size="14" lengthAdjust="spacing" textLength="33.1406" x="13" y="176.4648">state</text><text fill="#000000" font-family="sans-serif" font-size="14" lengthAdjust="spacing" textLength="20.8838" x="13" y="192.9531">zip</text><text fill="#000000" font-family="sans-serif" font-size="14" lengthAdjust="spacing" textLength="45.6982" x="13" y="209.4414">county</text><text fill="#000000" font-family="sans-serif" font-size="14" lengthAdjust="spacing" textLength="86.3242" x="13" y="225.9297">countryCode</text><text fill="#808080" font-family="sans-serif" font-size="14" lengthAdjust="spacing" textLength="121.6592" x="103.7539" y="225.9297">string-categorical</text><text fill="#000000" font-family="sans-serif" font-size="14" lengthAdjust="spacing" textLength="131.8516" x="13" y="242.418">countryCodeSource</text><text fill="#808080" font-family="sans-serif" font-size="14" lengthAdjust="spacing" textLength="119.2803" x="149.2813" y="242.418">CodeableConcept</text><text fill="#000000" font-family="sans-serif" font-size="14" lengthAdjust="spacing" textLength="51.5977" x="13" y="258.9063">latitude</text><text fill="#000000" font-family="sans-serif" font-size="14" lengthAdjust="spacing" textLength="64.6475" x="13" y="275.3945">longitude</text><line style="stroke:#181818;stroke-width:0.5;" x1="8" x2="273.5615" y1="282.3477" y2="282.3477"/></g><!--SRC=[LOv12i9034NtEKKl8A9BATtq29uWPk8G29EIIHTLl7jhYwMkylB3uoSab1irmX0hG8grxkiR9749UGhx0UysEZ5WIiwrNdvm1PAOe0O6mqi681lB4gp3fzuIDosPcj-ouzJLS2dvj5HnDXT2RS_hkJigMzcV-8tneTnR8HvYjtHvEiR4e5RoHfyP]--></g></svg>