<svg xmlns="http://www.w3.org/2000/svg" xmlns:xlink="http://www.w3.org/1999/xlink" contentStyleType="text/css" data-diagram-type="CLASS" height="233px" preserveAspectRatio="none" style="width:156px;height:233px;background:#FFFFFF;" version="1.1" viewBox="0 0 156 233" width="156px" zoomAndPan="magnify"><defs/><g><!--class observation--><g class="entity" data-entity="observation" data-source-line="1" data-uid="ent0002" id="entity_observation"><rect fill="#F1F1F1" height="212.8828" rx="2.5" ry="2.5" style="stroke:#181818;stroke-width:0.5;" width="135.5596" x="7" y="7"/><ellipse cx="32.7706" cy="23" fill="#ADD1B2" rx="11" ry="11" style="stroke:#181818;stroke-width:1;"/><path d="M35.2437,29.1431 Q34.6626,29.4419 34.0235,29.5913 Q33.3843,29.7407 32.6788,29.7407 Q30.1719,29.7407 28.8521,28.0889 Q27.5323,26.437 27.5323,23.3159 Q27.5323,20.1865 28.8521,18.5347 Q30.1719,16.8828 32.6788,16.8828 Q33.3843,16.8828 34.0318,17.0322 Q34.6792,17.1816 35.2437,17.4805 L35.2437,20.2031 Q34.6128,19.6221 34.0193,19.3523 Q33.4258,19.0825 32.795,19.0825 Q31.4502,19.0825 30.7654,20.1492 Q30.0806,21.2158 30.0806,23.3159 Q30.0806,25.4077 30.7654,26.4744 Q31.4502,27.541 32.795,27.541 Q33.4258,27.541 34.0193,27.2712 Q34.6128,27.0015 35.2437,26.4204 Z " fill="#000000"/><text fill="#000000" font-family="sans-serif" font-size="14" lengthAdjust="spacing" textLength="79.625" x="49.164" y="28.291">observation</text><line style="stroke:#181818;stroke-width:0.5;" x1="8" x2="141.5596" y1="39" y2="39"/><text fill="#000000" font-family="sans-serif" font-size="14" lengthAdjust="spacing" textLength="61.3525" x="13" y="56.5352">identifier</text><text fill="#000000" font-family="sans-serif" font-size="14" lengthAdjust="spacing" textLength="53.4775" x="13" y="73.0234">concept</text><text fill="#000000" font-family="sans-serif" font-size="14" lengthAdjust="spacing" textLength="99.0049" x="13" y="89.5117">conceptSource</text><text fill="#000000" font-family="sans-serif" font-size="14" lengthAdjust="spacing" textLength="58.3105" x="13" y="106">category</text><a href="observation~value" target="_top" title="observation~value" xlink:actuate="onRequest" xlink:href="observation~value" xlink:show="new" xlink:title="observation~value" xlink:type="simple"><text fill="#0000FF" font-family="sans-serif" font-size="14" lengthAdjust="spacing" text-decoration="underline" textLength="35.5127" x="13" y="122.4883">value</text></a><text fill="#000000" font-family="sans-serif" font-size="14" lengthAdjust="spacing" textLength="69.1729" x="13" y="138.9766">value_unit</text><text fill="#000000" font-family="sans-serif" font-size="14" lengthAdjust="spacing" textLength="52.2061" x="13" y="155.4648">method</text><text fill="#000000" font-family="sans-serif" font-size="14" lengthAdjust="spacing" textLength="58.1602" x="13" y="171.9531">bodySite</text><text fill="#000000" font-family="sans-serif" font-size="14" lengthAdjust="spacing" textLength="72.6182" x="13" y="188.4414">originType</text><text fill="#000000" font-family="sans-serif" font-size="14" lengthAdjust="spacing" textLength="123.5596" x="13" y="204.9297">providerReference</text><line style="stroke:#181818;stroke-width:0.5;" x1="8" x2="141.5596" y1="211.8828" y2="211.8828"/></g><!--SRC=[JOt12eCm40Nl-nL-K-rDfCJaQHViRjXi0g6qtwu8XLvcJiF4FPGow59WBJYhl8aJn7bb64MLYEm_ZrejWc9mR6gTfkal_BQmLmmNvvakFwgmqml-r4IBfZwoWzHuOxdt3CgcxVpP3IiCvuG-1m00]--></g></svg>