<svg xmlns="http://www.w3.org/2000/svg" xmlns:xlink="http://www.w3.org/1999/xlink" contentStyleType="text/css" data-diagram-type="CLASS" height="139px" preserveAspectRatio="none" style="width:651px;height:139px;background:#FFFFFF;" version="1.1" viewBox="0 0 651 139" width="651px" zoomAndPan="magnify"><title>pathology_report</title><defs/><g><g class="title" data-source-line="1"><text fill="#000000" font-family="sans-serif" font-size="14" font-weight="bold" lengthAdjust="spacing" textLength="124.0313" x="259.5234" y="23.5352">pathology_report</text></g><!--class pathology_report--><g class="entity" data-entity="pathology_report" data-source-line="2" data-uid="ent0002" id="entity_pathology_report"><rect fill="#F1F1F1" height="80.9766" rx="2.5" ry="2.5" style="stroke:#181818;stroke-width:0.5;" width="630.0781" x="7" y="44.4883"/><ellipse cx="259.458" cy="60.4883" fill="#ADD1B2" rx="11" ry="11" style="stroke:#181818;stroke-width:1;"/><path d="M261.9312,66.6313 Q261.3501,66.9302 260.7109,67.0796 Q260.0718,67.229 259.3662,67.229 Q256.8594,67.229 255.5396,65.5771 Q254.2197,63.9253 254.2197,60.8042 Q254.2197,57.6748 255.5396,56.0229 Q256.8594,54.3711 259.3662,54.3711 Q260.0718,54.3711 260.7192,54.5205 Q261.3667,54.6699 261.9312,54.9688 L261.9312,57.6914 Q261.3003,57.1104 260.7068,56.8406 Q260.1133,56.5708 259.4824,56.5708 Q258.1377,56.5708 257.4529,57.6375 Q256.7681,58.7041 256.7681,60.8042 Q256.7681,62.896 257.4529,63.9626 Q258.1377,65.0293 259.4824,65.0293 Q260.1133,65.0293 260.7068,64.7595 Q261.3003,64.4897 261.9312,63.9087 Z " fill="#000000"/><text fill="#000000" font-family="sans-serif" font-size="14" lengthAdjust="spacing" textLength="116.6621" x="279.958" y="65.7793">pathology_report</text><line style="stroke:#181818;stroke-width:0.5;" x1="8" x2="636.0781" y1="76.4883" y2="76.4883"/><text fill="#000000" font-family="sans-serif" font-size="14" lengthAdjust="spacing" textLength="76.1182" x="13" y="94.0234">abstraction</text><text fill="#000000" font-family="sans-serif" font-size="14" lengthAdjust="spacing" textLength="225.8457" x="13" y="110.5117">abstraction~numberOfSpecimens</text><text fill="#808080" font-family="sans-serif" font-size="14" lengthAdjust="spacing" textLength="376.626" x="243.2754" y="110.5117">number of speciments included in the pathology report</text><text fill="#000000" font-family="sans-serif" font-size="14" lengthAdjust="spacing" textLength="4.4297" x="619.9014" y="110.5117">&#160;</text><a href="" target="_top" title="path_num_spec" xlink:actuate="onRequest" xlink:href="" xlink:show="new" xlink:title="path_num_spec" xlink:type="simple"><text fill="#0000FF" font-family="sans-serif" font-size="14" lengthAdjust="spacing" text-decoration="underline" textLength="6.7471" x="624.3311" y="110.5117">*</text></a><line style="stroke:#181818;stroke-width:0.5;" x1="8" x2="636.0781" y1="117.4648" y2="117.4648"/></g><!--SRC=[POuz3eCm38NtdC9pb-uLuWeTEY8K1MCWKaWYsmm8qRCtb0v8tPxUf_UZNWD1TZgbaCRLCkN4QZ0uaJzxCwuJPOVgKxpgTrpcZlWvl3AXdoaAL5YI_1ZPhVL98GqWFwu2Fc9OUkgB09qk7-0Sg-xVXXgQPZkOBItsoEzmQrkpVm00]--></g></svg>