<svg xmlns="http://www.w3.org/2000/svg" xmlns:xlink="http://www.w3.org/1999/xlink" contentStyleType="text/css" data-diagram-type="CLASS" height="188px" preserveAspectRatio="none" style="width:317px;height:188px;background:#FFFFFF;" version="1.1" viewBox="0 0 317 188" width="317px" zoomAndPan="magnify"><title>provider</title><defs/><g><g class="title" data-source-line="1"><text fill="#000000" font-family="sans-serif" font-size="14" font-weight="bold" lengthAdjust="spacing" textLength="61.2842" x="124.1206" y="23.5352">provider</text></g><!--class provider--><g class="entity" data-entity="provider" data-source-line="2" data-uid="ent0002" id="entity_provider"><rect fill="#F1F1F1" height="130.4414" rx="2.5" ry="2.5" style="stroke:#181818;stroke-width:0.5;" width="296.5254" x="7" y="44.4883"/><ellipse cx="122.6265" cy="60.4883" fill="#ADD1B2" rx="11" ry="11" style="stroke:#181818;stroke-width:1;"/><path d="M125.0996,66.6313 Q124.5186,66.9302 123.8794,67.0796 Q123.2402,67.229 122.5347,67.229 Q120.0278,67.229 118.708,65.5771 Q117.3882,63.9253 117.3882,60.8042 Q117.3882,57.6748 118.708,56.0229 Q120.0278,54.3711 122.5347,54.3711 Q123.2402,54.3711 123.8877,54.5205 Q124.5352,54.6699 125.0996,54.9688 L125.0996,57.6914 Q124.4688,57.1104 123.8752,56.8406 Q123.2817,56.5708 122.6509,56.5708 Q121.3062,56.5708 120.6213,57.6375 Q119.9365,58.7041 119.9365,60.8042 Q119.9365,62.896 120.6213,63.9626 Q121.3062,65.0293 122.6509,65.0293 Q123.2817,65.0293 123.8752,64.7595 Q124.4688,64.4897 125.0996,63.9087 Z " fill="#000000"/><text fill="#000000" font-family="sans-serif" font-size="14" lengthAdjust="spacing" textLength="56.7725" x="143.1265" y="65.7793">provider</text><line style="stroke:#181818;stroke-width:0.5;" x1="8" x2="302.5254" y1="76.4883" y2="76.4883"/><text fill="#000000" font-family="sans-serif" font-size="14" lengthAdjust="spacing" textLength="61.3525" x="13" y="94.0234">identifier</text><text fill="#000000" font-family="sans-serif" font-size="14" lengthAdjust="spacing" textLength="29.1621" x="13" y="110.5117">type</text><text fill="#808080" font-family="sans-serif" font-size="14" lengthAdjust="spacing" textLength="121.6592" x="46.5918" y="110.5117">string-categorical</text><text fill="#000000" font-family="sans-serif" font-size="14" lengthAdjust="spacing" textLength="115.2881" x="13" y="127">specialtyConcept</text><text fill="#808080" font-family="sans-serif" font-size="14" lengthAdjust="spacing" textLength="119.2803" x="132.7178" y="127">CodeableConcept</text><text fill="#000000" font-family="sans-serif" font-size="14" lengthAdjust="spacing" textLength="160.8154" x="13" y="143.4883">specialtyConceptSource</text><text fill="#808080" font-family="sans-serif" font-size="14" lengthAdjust="spacing" textLength="119.2803" x="178.2451" y="143.4883">CodeableConcept</text><text fill="#000000" font-family="sans-serif" font-size="14" lengthAdjust="spacing" textLength="72.6182" x="13" y="159.9766">originType</text><text fill="#808080" font-family="sans-serif" font-size="14" lengthAdjust="spacing" textLength="121.6592" x="90.0479" y="159.9766">string-categorical</text><line style="stroke:#181818;stroke-width:0.5;" x1="8" x2="302.5254" y1="166.9297" y2="166.9297"/></g><!--SRC=[bOv12iCm30JlVaK-K7eF8PSy8Vs0eYX682mZgmLJ-lUQ408z5DhBmZ8Ckyukr6NJ1wza0GLAEUipj4pE6pVaDLCte8fQ7mtgMDmunGk2KrHZ11ckEnv3oOGCudNIX9Jzmvjq9LY43lPLclLkI3-fRJvokltnyFK6]--></g></svg>