<svg xmlns="http://www.w3.org/2000/svg" xmlns:xlink="http://www.w3.org/1999/xlink" contentStyleType="text/css" data-diagram-type="CLASS" height="205px" preserveAspectRatio="none" style="width:316px;height:205px;background:#FFFFFF;" version="1.1" viewBox="0 0 316 205" width="316px" zoomAndPan="magnify"><title>report_section</title><defs/><g><g class="title" data-source-line="1"><text fill="#000000" font-family="sans-serif" font-size="14" font-weight="bold" lengthAdjust="spacing" textLength="103.7559" x="102.3926" y="23.5352">report_section</text></g><!--class report_section--><g class="entity" data-entity="report_section" data-source-line="2" data-uid="ent0002" id="entity_report_section"><rect fill="#F1F1F1" height="146.9297" rx="2.5" ry="2.5" style="stroke:#181818;stroke-width:0.5;" width="295.541" x="7" y="44.4883"/><ellipse cx="101.729" cy="60.4883" fill="#ADD1B2" rx="11" ry="11" style="stroke:#181818;stroke-width:1;"/><path d="M104.2021,66.6313 Q103.6211,66.9302 102.9819,67.0796 Q102.3428,67.229 101.6372,67.229 Q99.1304,67.229 97.8105,65.5771 Q96.4907,63.9253 96.4907,60.8042 Q96.4907,57.6748 97.8105,56.0229 Q99.1304,54.3711 101.6372,54.3711 Q102.3428,54.3711 102.9902,54.5205 Q103.6377,54.6699 104.2021,54.9688 L104.2021,57.6914 Q103.5713,57.1104 102.9778,56.8406 Q102.3843,56.5708 101.7534,56.5708 Q100.4087,56.5708 99.7239,57.6375 Q99.0391,58.7041 99.0391,60.8042 Q99.0391,62.896 99.7239,63.9626 Q100.4087,65.0293 101.7534,65.0293 Q102.3843,65.0293 102.9778,64.7595 Q103.5713,64.4897 104.2021,63.9087 Z " fill="#000000"/><text fill="#000000" font-family="sans-serif" font-size="14" lengthAdjust="spacing" textLength="97.583" x="122.229" y="65.7793">report_section</text><line style="stroke:#181818;stroke-width:0.5;" x1="8" x2="301.541" y1="76.4883" y2="76.4883"/><text fill="#000000" font-family="sans-serif" font-size="14" lengthAdjust="spacing" textLength="61.3525" x="13" y="94.0234">identifier</text><text fill="#808080" font-family="sans-serif" font-size="14" lengthAdjust="spacing" textLength="48.0293" x="78.7822" y="94.0234">integer</text><text fill="#000000" font-family="sans-serif" font-size="14" lengthAdjust="spacing" textLength="108.6914" x="13" y="110.5117">reportReference</text><text fill="#808080" font-family="sans-serif" font-size="14" lengthAdjust="spacing" textLength="109.9971" x="126.1211" y="110.5117">reference:report</text><text fill="#000000" font-family="sans-serif" font-size="14" lengthAdjust="spacing" textLength="114.3037" x="13" y="127">categoryConcept</text><text fill="#808080" font-family="sans-serif" font-size="14" lengthAdjust="spacing" textLength="119.2803" x="131.7334" y="127">CodeableConcept</text><text fill="#000000" font-family="sans-serif" font-size="14" lengthAdjust="spacing" textLength="159.8311" x="13" y="143.4883">categoryConceptSource</text><text fill="#808080" font-family="sans-serif" font-size="14" lengthAdjust="spacing" textLength="119.2803" x="177.2607" y="143.4883">CodeableConcept</text><text fill="#000000" font-family="sans-serif" font-size="14" lengthAdjust="spacing" textLength="26.3662" x="13" y="159.9766">title</text><text fill="#808080" font-family="sans-serif" font-size="14" lengthAdjust="spacing" textLength="39.5664" x="43.7959" y="159.9766">string</text><text fill="#000000" font-family="sans-serif" font-size="14" lengthAdjust="spacing" textLength="26.8584" x="13" y="176.4648">text</text><text fill="#808080" font-family="sans-serif" font-size="14" lengthAdjust="spacing" textLength="39.5664" x="44.2881" y="176.4648">string</text><line style="stroke:#181818;stroke-width:0.5;" x1="8" x2="301.541" y1="183.418" y2="183.418"/></g><!--SRC=[VOzB2eD044JtSmflaBs86s-G721Cnb8QXccfwK0avEuHpK_1RAlUgwPDBA8W1gMTCuA99XUYptaJtfsqI2QTW4KLD2hBddwi9Hbwi3hCMUqMxOWEH0fOiNodvK9zfE2d4UNOw5GEjf8QRU4l4QzkppdfbPjpUwRDJ_-IsIYf_mAusR_-yGG0]--></g></svg>