<svg xmlns="http://www.w3.org/2000/svg" xmlns:xlink="http://www.w3.org/1999/xlink" contentStyleType="text/css" data-diagram-type="CLASS" height="205px" preserveAspectRatio="none" style="width:301px;height:205px;background:#FFFFFF;" version="1.1" viewBox="0 0 301 205" width="301px" zoomAndPan="magnify"><title>site</title><defs/><g><g class="title" data-source-line="1"><text fill="#000000" font-family="sans-serif" font-size="14" font-weight="bold" lengthAdjust="spacing" textLength="26.3457" x="133.4038" y="23.5352">site</text></g><!--class site--><g class="entity" data-entity="site" data-source-line="2" data-uid="ent0002" id="entity_site"><rect fill="#F1F1F1" height="146.9297" rx="2.5" ry="2.5" style="stroke:#181818;stroke-width:0.5;" width="280.1533" x="7" y="44.4883"/><ellipse cx="130.7168" cy="60.4883" fill="#ADD1B2" rx="11" ry="11" style="stroke:#181818;stroke-width:1;"/><path d="M133.1899,66.6313 Q132.6089,66.9302 131.9697,67.0796 Q131.3306,67.229 130.625,67.229 Q128.1182,67.229 126.7983,65.5771 Q125.4785,63.9253 125.4785,60.8042 Q125.4785,57.6748 126.7983,56.0229 Q128.1182,54.3711 130.625,54.3711 Q131.3306,54.3711 131.978,54.5205 Q132.6255,54.6699 133.1899,54.9688 L133.1899,57.6914 Q132.5591,57.1104 131.9656,56.8406 Q131.3721,56.5708 130.7412,56.5708 Q129.3965,56.5708 128.7117,57.6375 Q128.0269,58.7041 128.0269,60.8042 Q128.0269,62.896 128.7117,63.9626 Q129.3965,65.0293 130.7412,65.0293 Q131.3721,65.0293 131.9656,64.7595 Q132.5591,64.4897 133.1899,63.9087 Z " fill="#000000"/><text fill="#000000" font-family="sans-serif" font-size="14" lengthAdjust="spacing" textLength="24.2197" x="151.2168" y="65.7793">site</text><line style="stroke:#181818;stroke-width:0.5;" x1="8" x2="286.1533" y1="76.4883" y2="76.4883"/><text fill="#000000" font-family="sans-serif" font-size="14" lengthAdjust="spacing" textLength="61.3525" x="13" y="94.0234">identifier</text><text fill="#000000" font-family="sans-serif" font-size="14" lengthAdjust="spacing" textLength="106.8799" x="13" y="110.5117">identifierSource</text><text fill="#000000" font-family="sans-serif" font-size="14" lengthAdjust="spacing" textLength="37.29" x="13" y="127">name</text><text fill="#000000" font-family="sans-serif" font-size="14" lengthAdjust="spacing" textLength="98.916" x="13" y="143.4883">placeOfService</text><text fill="#808080" font-family="sans-serif" font-size="14" lengthAdjust="spacing" textLength="121.6592" x="116.3457" y="143.4883">string-categorical</text><text fill="#000000" font-family="sans-serif" font-size="14" lengthAdjust="spacing" textLength="144.4434" x="13" y="159.9766">placeOfServiceSource</text><text fill="#808080" font-family="sans-serif" font-size="14" lengthAdjust="spacing" textLength="119.2803" x="161.873" y="159.9766">CodeableConcept</text><text fill="#000000" font-family="sans-serif" font-size="14" lengthAdjust="spacing" textLength="54.1201" x="13" y="176.4648">location</text><text fill="#808080" font-family="sans-serif" font-size="14" lengthAdjust="spacing" textLength="122.2129" x="71.5498" y="176.4648">reference:location</text><line style="stroke:#181818;stroke-width:0.5;" x1="8" x2="286.1533" y1="183.418" y2="183.418"/></g><!--SRC=[NOn12eD034NtSmelKBeNSUC1kl04QVnA89r89YsKqhihbahjxiDxxuU4eYeIIAnKoZPVIGRaa57WFxEtkpDIfXlIhCIuZ3ty8OogOLFpUd9wjYLSydHY2apcmgJDUSFjN_NvExIT3Q2hehFCc6CFrTOxiNoG7ICSgrX_yUw_5m00]--></g></svg>