<svg xmlns="http://www.w3.org/2000/svg" xmlns:xlink="http://www.w3.org/1999/xlink" contentStyleType="text/css" data-diagram-type="CLASS" height="139px" preserveAspectRatio="none" style="width:546px;height:139px;background:#FFFFFF;" version="1.1" viewBox="0 0 546 139" width="546px" zoomAndPan="magnify"><title>therapeutic_procedure</title><defs/><g><g class="title" data-source-line="1"><text fill="#000000" font-family="sans-serif" font-size="14" font-weight="bold" lengthAdjust="spacing" textLength="162.292" x="187.9238" y="23.5352">therapeutic_procedure</text></g><!--class therapeutic_procedure--><g class="entity" data-entity="therapeutic_procedure" data-source-line="2" data-uid="ent0002" id="entity_therapeutic_procedure"><rect fill="#F1F1F1" height="80.9766" rx="2.5" ry="2.5" style="stroke:#181818;stroke-width:0.5;" width="525.1396" x="7" y="44.4883"/><ellipse cx="188.7813" cy="60.4883" fill="#ADD1B2" rx="11" ry="11" style="stroke:#181818;stroke-width:1;"/><path d="M191.2544,66.6313 Q190.6733,66.9302 190.0342,67.0796 Q189.395,67.229 188.6895,67.229 Q186.1826,67.229 184.8628,65.5771 Q183.543,63.9253 183.543,60.8042 Q183.543,57.6748 184.8628,56.0229 Q186.1826,54.3711 188.6895,54.3711 Q189.395,54.3711 190.0425,54.5205 Q190.6899,54.6699 191.2544,54.9688 L191.2544,57.6914 Q190.6235,57.1104 190.03,56.8406 Q189.4365,56.5708 188.8057,56.5708 Q187.4609,56.5708 186.7761,57.6375 Q186.0913,58.7041 186.0913,60.8042 Q186.0913,62.896 186.7761,63.9626 Q187.4609,65.0293 188.8057,65.0293 Q189.4365,65.0293 190.03,64.7595 Q190.6235,64.4897 191.2544,63.9087 Z " fill="#000000"/><text fill="#000000" font-family="sans-serif" font-size="14" lengthAdjust="spacing" textLength="153.0771" x="209.2813" y="65.7793">therapeutic_procedure</text><line style="stroke:#181818;stroke-width:0.5;" x1="8" x2="531.1396" y1="76.4883" y2="76.4883"/><text fill="#000000" font-family="sans-serif" font-size="14" lengthAdjust="spacing" textLength="244.4531" x="13" y="94.0234">radiationTherapyPlanningTechnique</text><text fill="#808080" font-family="sans-serif" font-size="14" lengthAdjust="spacing" textLength="121.6592" x="261.8828" y="94.0234">string-categorical</text><text fill="#000000" font-family="sans-serif" font-size="14" lengthAdjust="spacing" textLength="4.4297" x="383.542" y="94.0234">&#160;</text><a href="" target="_top" title="rt_planning" xlink:actuate="onRequest" xlink:href="" xlink:show="new" xlink:title="rt_planning" xlink:type="simple"><text fill="#0000FF" font-family="sans-serif" font-size="14" lengthAdjust="spacing" text-decoration="underline" textLength="6.7471" x="387.9717" y="94.0234">*</text></a><text fill="#000000" font-family="sans-serif" font-size="14" lengthAdjust="spacing" textLength="375.874" x="13" y="110.5117">classificationFromRadiationTherapyModalityPerspective</text><text fill="#808080" font-family="sans-serif" font-size="14" lengthAdjust="spacing" textLength="121.6592" x="393.3037" y="110.5117">string-categorical</text><text fill="#000000" font-family="sans-serif" font-size="14" lengthAdjust="spacing" textLength="4.4297" x="514.9629" y="110.5117">&#160;</text><a href="" target="_top" title="rt_type" xlink:actuate="onRequest" xlink:href="" xlink:show="new" xlink:title="rt_type" xlink:type="simple"><text fill="#0000FF" font-family="sans-serif" font-size="14" lengthAdjust="spacing" text-decoration="underline" textLength="6.7471" x="519.3926" y="110.5117">*</text></a><line style="stroke:#181818;stroke-width:0.5;" x1="8" x2="531.1396" y1="117.4648" y2="117.4648"/></g><!--SRC=[bSqn2uCm48RXtL-HkL2w5t7iLf3Y9YB7UTM3D4alfn34_rwhdKgNpk_tyIYh9QC32GGQbR4Duf6wKIX32p7-RdCcq34eUrTjFPKMd6FNLuI3u-T89aTllPnxWLH4bRKT4PHwBunWyzEM2rFNisWRFlV579fcb_c-xjx2HVpZziLTVGUMDPKaCH0gJt-2cWBjsF82]--></g></svg>