<svg xmlns="http://www.w3.org/2000/svg" xmlns:xlink="http://www.w3.org/1999/xlink" contentStyleType="text/css" data-diagram-type="CLASS" height="271px" preserveAspectRatio="none" style="width:357px;height:271px;background:#FFFFFF;" version="1.1" viewBox="0 0 357 271" width="357px" zoomAndPan="magnify"><title>visit_detail</title><defs/><g><g class="title" data-source-line="1"><text fill="#000000" font-family="sans-serif" font-size="14" font-weight="bold" lengthAdjust="spacing" textLength="78.4902" x="135.5845" y="23.5352">visit_detail</text></g><!--class visit_detail--><g class="entity" data-entity="visit_detail" data-source-line="2" data-uid="ent0002" id="entity_visit_detail"><rect fill="#F1F1F1" height="212.8828" rx="2.5" ry="2.5" style="stroke:#181818;stroke-width:0.5;" width="336.6592" x="7" y="44.4883"/><ellipse cx="134.8867" cy="60.4883" fill="#ADD1B2" rx="11" ry="11" style="stroke:#181818;stroke-width:1;"/><path d="M137.3599,66.6313 Q136.7788,66.9302 136.1396,67.0796 Q135.5005,67.229 134.7949,67.229 Q132.2881,67.229 130.9683,65.5771 Q129.6484,63.9253 129.6484,60.8042 Q129.6484,57.6748 130.9683,56.0229 Q132.2881,54.3711 134.7949,54.3711 Q135.5005,54.3711 136.1479,54.5205 Q136.7954,54.6699 137.3599,54.9688 L137.3599,57.6914 Q136.729,57.1104 136.1355,56.8406 Q135.542,56.5708 134.9111,56.5708 Q133.5664,56.5708 132.8816,57.6375 Q132.1968,58.7041 132.1968,60.8042 Q132.1968,62.896 132.8816,63.9626 Q133.5664,65.0293 134.9111,65.0293 Q135.542,65.0293 136.1355,64.7595 Q136.729,64.4897 137.3599,63.9087 Z " fill="#000000"/><text fill="#000000" font-family="sans-serif" font-size="14" lengthAdjust="spacing" textLength="72.3857" x="155.3867" y="65.7793">visit_detail</text><line style="stroke:#181818;stroke-width:0.5;" x1="8" x2="342.6592" y1="76.4883" y2="76.4883"/><text fill="#000000" font-family="sans-serif" font-size="14" lengthAdjust="spacing" textLength="94.5" x="13" y="94.0234">visitReference</text><text fill="#808080" font-family="sans-serif" font-size="14" lengthAdjust="spacing" textLength="95.8057" x="111.9297" y="94.0234">reference:visit</text><text fill="#000000" font-family="sans-serif" font-size="14" lengthAdjust="spacing" textLength="123.5596" x="13" y="110.5117">providerReference</text><text fill="#808080" font-family="sans-serif" font-size="14" lengthAdjust="spacing" textLength="124.8652" x="140.9893" y="110.5117">reference:provider</text><text fill="#000000" font-family="sans-serif" font-size="14" lengthAdjust="spacing" textLength="179.751" x="13" y="127">parentVisitDetailReference</text><text fill="#808080" font-family="sans-serif" font-size="14" lengthAdjust="spacing" textLength="140.4785" x="197.1807" y="127">reference:visit_detail</text><text fill="#000000" font-family="sans-serif" font-size="14" lengthAdjust="spacing" textLength="62.3232" x="13" y="143.4883">startDate</text><text fill="#808080" font-family="sans-serif" font-size="14" lengthAdjust="spacing" textLength="29.5791" x="79.7529" y="143.4883">date</text><text fill="#000000" font-family="sans-serif" font-size="14" lengthAdjust="spacing" textLength="96.0928" x="13" y="159.9766">startDateTime</text><text fill="#808080" font-family="sans-serif" font-size="14" lengthAdjust="spacing" textLength="59.7324" x="113.5225" y="159.9766">datetime</text><text fill="#000000" font-family="sans-serif" font-size="14" lengthAdjust="spacing" textLength="56.5537" x="13" y="176.4648">endDate</text><text fill="#808080" font-family="sans-serif" font-size="14" lengthAdjust="spacing" textLength="29.5791" x="73.9834" y="176.4648">date</text><text fill="#000000" font-family="sans-serif" font-size="14" lengthAdjust="spacing" textLength="90.3232" x="13" y="192.9531">endDateTime</text><text fill="#808080" font-family="sans-serif" font-size="14" lengthAdjust="spacing" textLength="59.7324" x="107.7529" y="192.9531">datetime</text><text fill="#000000" font-family="sans-serif" font-size="14" lengthAdjust="spacing" textLength="53.4775" x="13" y="209.4414">concept</text><text fill="#808080" font-family="sans-serif" font-size="14" lengthAdjust="spacing" textLength="119.2803" x="70.9072" y="209.4414">CodeableConcept</text><text fill="#000000" font-family="sans-serif" font-size="14" lengthAdjust="spacing" textLength="99.0049" x="13" y="225.9297">conceptSource</text><text fill="#808080" font-family="sans-serif" font-size="14" lengthAdjust="spacing" textLength="119.2803" x="116.4346" y="225.9297">CodeableConcept</text><text fill="#000000" font-family="sans-serif" font-size="14" lengthAdjust="spacing" textLength="72.6182" x="13" y="242.418">originType</text><line style="stroke:#181818;stroke-width:0.5;" x1="8" x2="342.6592" y1="249.3711" y2="249.3711"/></g><!--SRC=[ZOz13e9034NtSmfku9uGDd029MxDE5D9av6IJYKXnhixZe01ehZi_-__jeBY8EdGevmiY4QdZDFUpwIxYjCUBi3G64WoGuuuhLdtEOzg6g5i5xrSjKmTMk2jrCXzWZeOSdoLbN7zNtk7KwSMBvgbr38FsI2iaGglQqo2EA7GsDzT0x3TP2YStCeCAiY2FZietjwIFT2D5yz_In1ZZKtLjw0UJm00]--></g></svg>